<svg version="1.1" viewBox="0.0 0.0 1227.1811023622047 872.5380577427821" fill="none" stroke="none" stroke-linecap="square" stroke-miterlimit="10" xmlns:xlink="http://www.w3.org/1999/xlink" xmlns="http://www.w3.org/2000/svg"><clipPath id="p.0"><path d="m0 0l1227.1812 0l0 872.5381l-1227.1812 0l0 -872.5381z" clip-rule="nonzero"/></clipPath><g clip-path="url(#p.0)"><path fill="#000000" fill-opacity="0.0" d="m0 0l1227.1812 0l0 872.5381l-1227.1812 0z" fill-rule="evenodd"/><path fill="#000000" fill-opacity="0.0" d="m424.0129 5.984252l379.2441 0l0 59.779526l-379.2441 0z" fill-rule="evenodd"/><path stroke="#000000" stroke-width="3.0" stroke-linejoin="round" stroke-linecap="butt" d="m424.0129 5.984252l379.2441 0l0 59.779526l-379.2441 0z" fill-rule="evenodd"/><path fill="#000000" d="m487.41843 46.984253q-0.734375 0 -1.234375 -0.5q-0.5 -0.5 -0.5 -1.234375l0 -22.562502q0 -0.765625 0.5 -1.25q0.5 -0.484375 1.234375 -0.484375l6.03125 0q2.875 0 5.21875 0.953125q2.34375 0.953125 4.078125 2.703125q1.734375 1.75 2.671875 4.125q0.9375 2.359375 0.9375 5.218752q0 2.859375 -0.9375 5.25q-0.9375 2.375 -2.671875 4.125q-1.734375 1.75 -4.078125 2.703125q-2.34375 0.953125 -5.21875 0.953125l-6.03125 0zm1.734375 -3.0625l4.296875 0q2.796875 0 4.953125 -1.28125q2.15625 -1.28125 3.375 -3.53125q1.234375 -2.25 1.234375 -5.15625q0 -2.937502 -1.234375 -5.171877q-1.21875 -2.234375 -3.375 -3.5q-2.15625 -1.265625 -4.953125 -1.265625l-4.296875 0l0 19.906252zm29.89273 3.203125q-2.421875 0 -4.359375 -1.21875q-1.9375 -1.21875 -3.0624695 -3.296875q-1.109375 -2.09375 -1.109375 -4.71875q0 -2.640625 1.21875 -4.734375q1.2187195 -2.109377 3.2968445 -3.312502q2.09375 -1.21875 4.6875 -1.21875q2.59375 0 4.65625 1.21875q2.078125 1.203125 3.296875 3.312502q1.21875 2.09375 1.21875 4.734375l-1.3125 0q0 2.625 -1.125 4.71875q-1.109375 2.078125 -3.046875 3.296875q-1.921875 1.21875 -4.359375 1.21875zm0.671875 -3.0q1.703125 0 3.03125 -0.8125q1.328125 -0.828125 2.09375 -2.234375q0.765625 -1.421875 0.765625 -3.1875q0 -1.796875 -0.765625 -3.21875q-0.765625 -1.421875 -2.09375 -2.234375q-1.328125 -0.8125019 -3.03125 -0.8125019q-1.671875 0 -3.015625 0.8125019q-1.34375 0.8125 -2.140625 2.234375q-0.78125 1.421875 -0.78125 3.21875q0 1.765625 0.78125 3.1875q0.796875 1.40625 2.140625 2.234375q1.34375 0.8125 3.015625 0.8125zm7.46875 2.890625q-0.734375 0 -1.21875 -0.484375q-0.484375 -0.484375 -0.484375 -1.21875l0 -5.09375l0.625 -3.53125l2.78125 1.203125l0 7.421875q0 0.734375 -0.484375 1.21875q-0.484375 0.484375 -1.21875 0.484375zm13.387085 -0.03125q-1.65625 0 -3.0 -0.84375q-1.328125 -0.859375 -2.09375 -2.3125q-0.765625 -1.46875 -0.765625 -3.3125l0 -15.890627q0 -0.734375 0.46875 -1.203125q0.46875 -0.46875 1.203125 -0.46875q0.734375 0 1.1875 0.46875q0.46875 0.46875 0.46875 1.203125l0 15.890627q0 1.34375 0.734375 2.25q0.734375 0.890625 1.796875 0.890625l1.140625 0q0.59375 0 1.015625 0.46875q0.421875 0.453125 0.421875 1.1875q0 0.734375 -0.5625 1.203125q-0.546875 0.46875 -1.40625 0.46875l-0.609375 0zm-7.390625 -14.703125q-0.703125 0 -1.140625 -0.3906269q-0.421875 -0.40625 -0.421875 -1.0q0 -0.671875 0.421875 -1.0625q0.4375 -0.40625 1.140625 -0.40625l7.703125 0q0.6875 0 1.125 0.40625q0.4375 0.390625 0.4375 1.0625q0 0.59375 -0.4375 1.0q-0.4375 0.3906269 -1.125 0.3906269l-7.703125 0zm21.723938 14.84375q-2.421875 0 -4.359375 -1.21875q-1.9375 -1.21875 -3.0625 -3.296875q-1.109375 -2.09375 -1.109375 -4.71875q0 -2.640625 1.21875 -4.734375q1.21875 -2.109377 3.296875 -3.312502q2.09375 -1.21875 4.6875 -1.21875q2.59375 0 4.65625 1.21875q2.078125 1.203125 3.296875 3.312502q1.21875 2.09375 1.21875 4.734375l-1.3125 0q0 2.625 -1.125 4.71875q-1.109375 2.078125 -3.046875 3.296875q-1.921875 1.21875 -4.359375 1.21875zm0.671875 -3.0q1.703125 0 3.03125 -0.8125q1.328125 -0.828125 2.09375 -2.234375q0.765625 -1.421875 0.765625 -3.1875q0 -1.796875 -0.765625 -3.21875q-0.765625 -1.421875 -2.09375 -2.234375q-1.328125 -0.8125019 -3.03125 -0.8125019q-1.671875 0 -3.015625 0.8125019q-1.34375 0.8125 -2.140625 2.234375q-0.78125 1.421875 -0.78125 3.21875q0 1.765625 0.78125 3.1875q0.796875 1.40625 2.140625 2.234375q1.34375 0.8125 3.015625 0.8125zm7.46875 2.890625q-0.734375 0 -1.21875 -0.484375q-0.484375 -0.484375 -0.484375 -1.21875l0 -5.09375l0.625 -3.53125l2.78125 1.203125l0 7.421875q0 0.734375 -0.484375 1.21875q-0.484375 0.484375 -1.21875 0.484375zm18.762085 0.296875q-2.703125 0 -5.0625 -1.015625q-2.34375 -1.015625 -4.09375 -2.828125q-1.75 -1.8125 -2.734375 -4.25q-0.96875 -2.4375 -0.96875 -5.265625q0 -2.796877 0.96875 -5.203127q0.984375 -2.421875 2.734375 -4.234375q1.75 -1.828125 4.078125 -2.859375q2.34375 -1.03125 5.078125 -1.03125q2.5625 0 4.40625 0.671875q1.859375 0.65625 3.71875 2.1875q0.265625 0.203125 0.421875 0.421875q0.15625 0.21875 0.203125 0.4375q0.046875 0.203125 0.046875 0.515625q0 0.625 -0.453125 1.0625q-0.453125 0.4375 -1.109375 0.46875q-0.640625 0.03125 -1.203125 -0.4375q-1.234375 -1.0625 -2.5625 -1.625q-1.3125 -0.578125 -3.46875 -0.578125q-1.96875 0 -3.703125 0.8125q-1.734375 0.796875 -3.046875 2.203125q-1.3125 1.390625 -2.046875 3.25q-0.734375 1.84375 -0.734375 3.937502q0 2.140625 0.734375 3.984375q0.734375 1.84375 2.046875 3.25q1.3125 1.390625 3.046875 2.1875q1.734375 0.78125 3.703125 0.78125q1.703125 0 3.21875 -0.578125q1.515625 -0.59375 2.90625 -1.625q0.609375 -0.4375 1.1875 -0.375q0.578125 0.046875 0.984375 0.46875q0.40625 0.40625 0.40625 1.140625q0 0.328125 -0.125 0.65625q-0.109375 0.3125 -0.421875 0.578125q-1.765625 1.46875 -3.828125 2.1875q-2.0625 0.703125 -4.328125 0.703125zm8.703125 -4.125l-3.34375 -0.671875l0 -5.96875l-4.59375 0q-0.734375 0 -1.234375 -0.421875q-0.5 -0.4375 -0.5 -1.109375q0 -0.65625 0.5 -1.09375q0.5 -0.4375 1.234375 -0.4375l6.234375 0q0.765625 0 1.234375 0.484375q0.46875 0.484375 0.46875 1.25l0 7.96875zm12.421936 3.9375q-2.765625 0 -4.921875 -1.1875q-2.140625 -1.1875 -3.359375 -3.265625q-1.21875 -2.09375 -1.21875 -4.78125q0 -2.734375 1.140625 -4.8125q1.15625 -2.093752 3.1875 -3.265627q2.046875 -1.1875 4.671875 -1.1875q2.609375 0 4.46875 1.15625q1.859375 1.140625 2.84375 3.156252q0.984375 2.015625 0.984375 4.640625q0 0.640625 -0.4375 1.0625q-0.421875 0.40625 -1.09375 0.40625l-13.421875 0l0 -2.65625l13.328125 0l-1.375 0.921875q-0.03125 -1.65625 -0.671875 -2.96875q-0.625 -1.328125 -1.796875 -2.09375q-1.15625 -0.7656269 -2.828125 -0.7656269q-1.890625 0 -3.25 0.8437519q-1.34375 0.828125 -2.046875 2.28125q-0.703125 1.4375 -0.703125 3.28125q0 1.828125 0.828125 3.265625q0.84375 1.421875 2.3125 2.265625q1.46875 0.828125 3.359375 0.828125q1.03125 0 2.109375 -0.375q1.09375 -0.390625 1.765625 -0.890625q0.5 -0.359375 1.078125 -0.375q0.578125 -0.03125 1.015625 0.34375q0.5625 0.5 0.59375 1.109375q0.03125 0.59375 -0.53125 1.015625q-1.125 0.90625 -2.8125 1.484375q-1.6875 0.5625 -3.21875 0.5625zm27.524841 -0.109375q-0.734375 0 -1.21875 -0.484375q-0.46875 -0.484375 -0.46875 -1.21875l0 -8.1875q0 -1.90625 -0.703125 -3.109375q-0.703125 -1.203125 -1.890625 -1.78125q-1.171875 -0.5781269 -2.71875 -0.5781269q-1.390625 0 -2.53125 0.5625019q-1.125 0.5625 -1.796875 1.515625q-0.65625 0.953125 -0.65625 2.1875l-2.109375 0q0 -2.109375 1.015625 -3.75q1.015625 -1.6562519 2.78125 -2.609377q1.765625 -0.96875 3.96875 -0.96875q2.296875 0 4.109375 0.984375q1.828125 0.96875 2.875 2.875002q1.046875 1.90625 1.046875 4.671875l0 8.1875q0 0.734375 -0.484375 1.21875q-0.484375 0.484375 -1.21875 0.484375zm-13.6875 0q-0.734375 0 -1.21875 -0.484375q-0.484375 -0.484375 -0.484375 -1.21875l0 -14.859377q0 -0.765625 0.484375 -1.234375q0.484375 -0.46875 1.21875 -0.46875q0.765625 0 1.234375 0.46875q0.46875 0.46875 0.46875 1.234375l0 14.859377q0 0.734375 -0.46875 1.21875q-0.46875 0.484375 -1.234375 0.484375zm29.589111 0.109375q-2.765625 0 -4.921875 -1.1875q-2.140625 -1.1875 -3.359375 -3.265625q-1.21875 -2.09375 -1.21875 -4.78125q0 -2.734375 1.140625 -4.8125q1.15625 -2.093752 3.1875 -3.265627q2.046875 -1.1875 4.671875 -1.1875q2.609375 0 4.46875 1.15625q1.859375 1.140625 2.84375 3.156252q0.984375 2.015625 0.984375 4.640625q0 0.640625 -0.4375 1.0625q-0.421875 0.40625 -1.09375 0.40625l-13.421875 0l0 -2.65625l13.328125 0l-1.375 0.921875q-0.03125 -1.65625 -0.671875 -2.96875q-0.625 -1.328125 -1.796875 -2.09375q-1.15625 -0.7656269 -2.828125 -0.7656269q-1.890625 0 -3.25 0.8437519q-1.34375 0.828125 -2.046875 2.28125q-0.703125 1.4375 -0.703125 3.28125q0 1.828125 0.828125 3.265625q0.84375 1.421875 2.3125 2.265625q1.46875 0.828125 3.359375 0.828125q1.03125 0 2.109375 -0.375q1.09375 -0.390625 1.765625 -0.890625q0.5 -0.359375 1.078125 -0.375q0.578125 -0.03125 1.015625 0.34375q0.5625 0.5 0.59375 1.109375q0.03125 0.59375 -0.53125 1.015625q-1.125 0.90625 -2.8125 1.484375q-1.6875 0.5625 -3.21875 0.5625zm13.759216 -11.53125q0 -2.0 0.984375 -3.578125q0.984375 -1.5937519 2.65625 -2.531252q1.671875 -0.9375 3.671875 -0.9375q2.0 0 2.96875 0.65625q0.984375 0.65625 0.765625 1.546875q-0.109375 0.46875 -0.390625 0.71875q-0.28125 0.25 -0.65625 0.328125q-0.359375 0.0625 -0.796875 -0.046875q-2.125 -0.4375 -3.828125 -0.0625q-1.703125 0.3593769 -2.6875 1.3593769q-0.984375 1.0 -0.984375 2.546875l-1.703125 0zm0.046875 11.390625q-0.8125 0 -1.25 -0.40625q-0.421875 -0.421875 -0.421875 -1.265625l0 -14.890627q0 -0.796875 0.421875 -1.234375q0.4375 -0.4375 1.25 -0.4375q0.828125 0 1.234375 0.421875q0.421875 0.421875 0.421875 1.25l0 14.890627q0 0.8125 -0.421875 1.25q-0.40625 0.421875 -1.234375 0.421875zm20.78601 0.140625q-2.421936 0 -4.359436 -1.21875q-1.9375 -1.21875 -3.0625 -3.296875q-1.109375 -2.09375 -1.109375 -4.71875q0 -2.640625 1.21875 -4.734375q1.21875 -2.109377 3.296875 -3.312502q2.09375 -1.21875 4.687561 -1.21875q2.59375 0 4.65625 1.21875q2.078125 1.203125 3.296875 3.312502q1.21875 2.09375 1.21875 4.734375l-1.3125 0q0 2.625 -1.125 4.71875q-1.109375 2.078125 -3.046875 3.296875q-1.921875 1.21875 -4.359375 1.21875zm0.671875 -3.0q1.703125 0 3.03125 -0.8125q1.328125 -0.828125 2.09375 -2.234375q0.765625 -1.421875 0.765625 -3.1875q0 -1.796875 -0.765625 -3.21875q-0.765625 -1.421875 -2.09375 -2.234375q-1.328125 -0.8125019 -3.03125 -0.8125019q-1.671936 0 -3.015686 0.8125019q-1.34375 0.8125 -2.140625 2.234375q-0.78125 1.421875 -0.78125 3.21875q0 1.765625 0.78125 3.1875q0.796875 1.40625 2.140625 2.234375q1.34375 0.8125 3.015686 0.8125zm7.46875 2.890625q-0.734375 0 -1.21875 -0.484375q-0.484375 -0.484375 -0.484375 -1.21875l0 -5.09375l0.625 -3.53125l2.78125 1.203125l0 7.421875q0 0.734375 -0.484375 1.21875q-0.484375 0.484375 -1.21875 0.484375zm13.387024 -0.03125q-1.65625 0 -3.0 -0.84375q-1.328125 -0.859375 -2.09375 -2.3125q-0.765625 -1.46875 -0.765625 -3.3125l0 -15.890627q0 -0.734375 0.46875 -1.203125q0.46875 -0.46875 1.203125 -0.46875q0.734375 0 1.1875 0.46875q0.46875 0.46875 0.46875 1.203125l0 15.890627q0 1.34375 0.734375 2.25q0.734375 0.890625 1.796875 0.890625l1.140625 0q0.59375 0 1.015625 0.46875q0.421875 0.453125 0.421875 1.1875q0 0.734375 -0.5625 1.203125q-0.546875 0.46875 -1.40625 0.46875l-0.609375 0zm-7.390625 -14.703125q-0.703125 0 -1.140625 -0.3906269q-0.421875 -0.40625 -0.421875 -1.0q0 -0.671875 0.421875 -1.0625q0.4375 -0.40625 1.140625 -0.40625l7.703125 0q0.6875 0 1.125 0.40625q0.4375 0.390625 0.4375 1.0625q0 0.59375 -0.4375 1.0q-0.4375 0.3906269 -1.125 0.3906269l-7.703125 0zm22.395813 14.84375q-2.703125 0 -4.765625 -1.1875q-2.0625 -1.1875 -3.25 -3.265625q-1.1875 -2.09375 -1.1875 -4.78125q0 -2.734375 1.1875 -4.8125q1.1875 -2.093752 3.25 -3.265627q2.0625 -1.1875 4.765625 -1.1875q2.671875 0 4.734375 1.1875q2.0625 1.171875 3.25 3.265627q1.1875 2.078125 1.1875 4.8125q0 2.6875 -1.171875 4.78125q-1.171875 2.078125 -3.234375 3.265625q-2.0625 1.1875 -4.765625 1.1875zm0 -3.0q1.734375 0 3.0625 -0.796875q1.34375 -0.8125 2.078125 -2.203125q0.75 -1.40625 0.75 -3.234375q0 -1.84375 -0.75 -3.25q-0.734375 -1.421875 -2.078125 -2.21875q-1.328125 -0.7968769 -3.0625 -0.7968769q-1.734375 0 -3.078125 0.7968769q-1.328125 0.796875 -2.09375 2.21875q-0.765625 1.40625 -0.765625 3.25q0 1.828125 0.765625 3.234375q0.765625 1.390625 2.09375 2.203125q1.34375 0.796875 3.078125 0.796875zm15.855835 -8.53125q0 -2.0 0.984375 -3.578125q0.984375 -1.5937519 2.65625 -2.531252q1.671875 -0.9375 3.671875 -0.9375q2.0 0 2.96875 0.65625q0.984375 0.65625 0.765625 1.546875q-0.109375 0.46875 -0.390625 0.71875q-0.28125 0.25 -0.65625 0.328125q-0.359375 0.0625 -0.796875 -0.046875q-2.125 -0.4375 -3.828125 -0.0625q-1.703125 0.3593769 -2.6875 1.3593769q-0.984375 1.0 -0.984375 2.546875l-1.703125 0zm0.046875 11.390625q-0.8125 0 -1.25 -0.40625q-0.421875 -0.421875 -0.421875 -1.265625l0 -14.890627q0 -0.796875 0.421875 -1.234375q0.4375 -0.4375 1.25 -0.4375q0.828125 0 1.234375 0.421875q0.421875 0.421875 0.421875 1.25l0 14.890627q0 0.8125 -0.421875 1.25q-0.40625 0.421875 -1.234375 0.421875z" fill-rule="nonzero"/><path fill="#000000" fill-opacity="0.0" d="m5.984252 419.03937l256.12598 0l0 43.62204l-256.12598 0z" fill-rule="evenodd"/><path stroke="#000000" stroke-width="2.0" stroke-linejoin="round" stroke-linecap="butt" d="m5.984252 419.03937l256.12598 0l0 43.62204l-256.12598 0z" fill-rule="evenodd"/><path fill="#000000" d="m39.71737 447.4425q-1.625 0 -3.03125 -0.609375q-1.40625 -0.609375 -2.46875 -1.703125q-1.046875 -1.09375 -1.640625 -2.546875q-0.5781269 -1.46875 -0.5781269 -3.15625q0 -1.6875 0.5781269 -3.140625q0.59375 -1.453125 1.640625 -2.53125q1.0625 -1.09375 2.453125 -1.703125q1.40625 -0.625 3.046875 -0.625q1.546875 0 2.65625 0.40625q1.109375 0.390625 2.21875 1.3125q0.171875 0.109375 0.25 0.25q0.09375 0.125 0.125 0.265625q0.03125 0.125 0.03125 0.296875q0 0.375 -0.28125 0.625q-0.265625 0.25 -0.640625 0.28125q-0.375 0.03125 -0.734375 -0.25q-0.75 -0.640625 -1.546875 -0.96875q-0.78125 -0.34375 -2.078125 -0.34375q-1.1875 0 -2.234375 0.484375q-1.03125 0.46875 -1.828125 1.3125q-0.78125 0.84375 -1.21875 1.953125q-0.4375 1.109375 -0.4375 2.375q0 1.265625 0.4375 2.390625q0.4375 1.109375 1.21875 1.953125q0.796875 0.828125 1.828125 1.296875q1.046875 0.46875 2.234375 0.46875q1.015625 0 1.921875 -0.34375q0.921875 -0.359375 1.765625 -0.96875q0.359375 -0.265625 0.703125 -0.234375q0.34375 0.03125 0.578125 0.28125q0.25 0.25 0.25 0.6875q0 0.203125 -0.078125 0.390625q-0.078125 0.1875 -0.234375 0.34375q-1.09375 0.859375 -2.328125 1.3125q-1.21875 0.4375 -2.578125 0.4375zm12.5056 -0.125q-1.625 0 -2.875 -0.703125q-1.234375 -0.71875 -1.953125 -1.96875q-0.703125 -1.25 -0.703125 -2.859375q0 -1.640625 0.703125 -2.890625q0.71875 -1.25 1.953125 -1.953125q1.25 -0.71875 2.875 -0.71875q1.59375 0 2.828125 0.71875q1.25 0.703125 1.953125 1.953125q0.71875 1.25 0.71875 2.890625q0 1.609375 -0.703125 2.859375q-0.703125 1.25 -1.953125 1.96875q-1.234375 0.703125 -2.84375 0.703125zm0 -1.796875q1.03125 0 1.828125 -0.484375q0.8125 -0.484375 1.25 -1.3125q0.453125 -0.84375 0.453125 -1.9375q0 -1.109375 -0.453125 -1.953125q-0.4375 -0.859375 -1.25 -1.328125q-0.796875 -0.484375 -1.828125 -0.484375q-1.046875 0 -1.84375 0.484375q-0.796875 0.46875 -1.265625 1.328125q-0.453125 0.84375 -0.453125 1.953125q0 1.09375 0.453125 1.9375q0.46875 0.828125 1.265625 1.3125q0.796875 0.484375 1.84375 0.484375zm11.634354 1.703125q-0.625 0 -0.953125 -0.671875l-4.25 -8.9375q-0.15625 -0.328125 -0.03125 -0.65625q0.140625 -0.34375 0.515625 -0.515625q0.34375 -0.1875 0.6875 -0.0625q0.34375 0.125 0.53125 0.453125l3.953125 8.546875l-0.953125 0l3.921875 -8.546875q0.171875 -0.328125 0.546875 -0.453125q0.375 -0.125 0.75 0.0625q0.359375 0.15625 0.46875 0.5q0.125 0.34375 -0.03125 0.671875l-4.234375 8.9375q-0.296875 0.671875 -0.921875 0.671875zm11.419373 0.09375q-1.453125 0 -2.625 -0.71875q-1.15625 -0.734375 -1.828125 -1.984375q-0.671875 -1.25 -0.671875 -2.828125q0 -1.59375 0.734375 -2.84375q0.734375 -1.265625 1.984375 -1.984375q1.25 -0.734375 2.8125 -0.734375q1.546875 0 2.78125 0.734375q1.25 0.71875 1.984375 1.984375q0.734375 1.25 0.734375 2.84375l-0.78125 0q0 1.578125 -0.671875 2.828125q-0.671875 1.25 -1.84375 1.984375q-1.15625 0.71875 -2.609375 0.71875zm0.40625 -1.796875q1.015625 0 1.8125 -0.484375q0.796875 -0.5 1.25 -1.34375q0.46875 -0.859375 0.46875 -1.90625q0 -1.09375 -0.46875 -1.9375q-0.453125 -0.84375 -1.25 -1.328125q-0.796875 -0.5 -1.8125 -0.5q-1.0 0 -1.8125 0.5q-0.8125 0.484375 -1.28125 1.328125q-0.46875 0.84375 -0.46875 1.9375q0 1.046875 0.46875 1.90625q0.46875 0.84375 1.28125 1.34375q0.8125 0.484375 1.8125 0.484375zm4.46875 1.734375q-0.4375 0 -0.734375 -0.28125q-0.28125 -0.296875 -0.28125 -0.734375l0 -3.0625l0.375 -2.125l1.671875 0.734375l0 4.453125q0 0.4375 -0.296875 0.734375q-0.28125 0.28125 -0.734375 0.28125zm5.0468597 -6.859375q0 -1.203125 0.578125 -2.140625q0.59375 -0.953125 1.59375 -1.515625q1.0 -0.5625 2.203125 -0.5625q1.203125 0 1.796875 0.390625q0.59375 0.390625 0.453125 0.9375q-0.0625 0.28125 -0.234375 0.4375q-0.171875 0.140625 -0.390625 0.1875q-0.21875 0.03125 -0.484375 -0.03125q-1.28125 -0.265625 -2.296875 -0.03125q-1.015625 0.21875 -1.609375 0.8125q-0.59375 0.59375 -0.59375 1.515625l-1.015625 0zm0.015625 6.84375q-0.484375 0 -0.75 -0.25q-0.25 -0.25 -0.25 -0.75l0 -8.9375q0 -0.484375 0.25 -0.734375q0.265625 -0.265625 0.75 -0.265625q0.5 0 0.75 0.25q0.25 0.25 0.25 0.75l0 8.9375q0 0.484375 -0.25 0.75q-0.25 0.25 -0.75 0.25zm9.938736 0q-0.4375 0 -0.734375 -0.28125q-0.28125 -0.296875 -0.28125 -0.734375l0 -8.90625q0 -0.453125 0.28125 -0.734375q0.296875 -0.28125 0.734375 -0.28125q0.46875 0 0.75 0.28125q0.28125 0.28125 0.28125 0.734375l0 8.90625q0 0.4375 -0.28125 0.734375q-0.28125 0.28125 -0.75 0.28125zm0 -12.71875q-0.546875 0 -0.9375 -0.390625q-0.390625 -0.390625 -0.390625 -0.9375q0 -0.53125 0.390625 -0.921875q0.390625 -0.390625 0.9375 -0.390625q0.53125 0 0.921875 0.390625q0.390625 0.390625 0.390625 0.921875q0 0.546875 -0.390625 0.9375q-0.390625 0.390625 -0.921875 0.390625zm9.383743 12.796875q-1.453125 0 -2.625 -0.71875q-1.15625 -0.734375 -1.828125 -1.984375q-0.671875 -1.25 -0.671875 -2.828125q0 -1.59375 0.734375 -2.84375q0.734375 -1.265625 1.984375 -1.984375q1.25 -0.734375 2.8125 -0.734375q1.546875 0 2.78125 0.734375q1.25 0.71875 1.984375 1.984375q0.734375 1.25 0.734375 2.84375l-0.78125 0q0 1.578125 -0.671875 2.828125q-0.671875 1.25 -1.84375 1.984375q-1.15625 0.71875 -2.609375 0.71875zm0.40625 -1.796875q1.015625 0 1.8125 -0.484375q0.796875 -0.5 1.25 -1.34375q0.46875 -0.859375 0.46875 -1.90625q0 -1.09375 -0.46875 -1.9375q-0.453125 -0.84375 -1.25 -1.328125q-0.796875 -0.5 -1.8125 -0.5q-1.0 0 -1.8125 0.5q-0.8125 0.484375 -1.28125 1.328125q-0.46875 0.84375 -0.46875 1.9375q0 1.046875 0.46875 1.90625q0.46875 0.84375 1.28125 1.34375q0.8125 0.484375 1.8125 0.484375zm4.46875 1.734375q-0.4375 0 -0.734375 -0.28125q-0.28125 -0.296875 -0.28125 -0.734375l0 -3.0625l0.375 -2.125l1.671875 0.734375l0 4.453125q0 0.4375 -0.296875 0.734375q-0.28125 0.28125 -0.734375 0.28125zm13.312485 0q-0.453125 0 -0.75 -0.28125q-0.28125 -0.296875 -0.28125 -0.734375l0 -4.921875q0 -1.140625 -0.421875 -1.859375q-0.40625 -0.71875 -1.125 -1.0625q-0.703125 -0.359375 -1.625 -0.359375q-0.84375 0 -1.53125 0.34375q-0.671875 0.34375 -1.078125 0.921875q-0.390625 0.5625 -0.390625 1.296875l-1.265625 0q0 -1.265625 0.609375 -2.25q0.609375 -0.984375 1.671875 -1.5625q1.0625 -0.59375 2.375 -0.59375q1.390625 0 2.46875 0.59375q1.09375 0.59375 1.71875 1.734375q0.640625 1.140625 0.640625 2.796875l0 4.921875q0 0.4375 -0.296875 0.734375q-0.28125 0.28125 -0.71875 0.28125zm-8.234375 0q-0.4375 0 -0.734375 -0.28125q-0.28125 -0.296875 -0.28125 -0.734375l0 -8.921875q0 -0.453125 0.28125 -0.734375q0.296875 -0.28125 0.734375 -0.28125q0.46875 0 0.75 0.28125q0.28125 0.28125 0.28125 0.734375l0 8.921875q0 0.4375 -0.28125 0.734375q-0.28125 0.28125 -0.75 0.28125zm17.593102 0.0625q-1.609375 0 -2.859375 -0.71875q-1.2499924 -0.734375 -1.9687424 -1.984375q-0.703125 -1.25 -0.703125 -2.828125q0 -1.625 0.703125 -2.875q0.703125 -1.265625 1.9218674 -1.96875q1.21875 -0.71875 2.796875 -0.71875q1.1875 0 2.1562653 0.453125q0.984375 0.4375 1.765625 1.34375q0.28125 0.3125 0.203125 0.65625q-0.078125 0.34375 -0.4375 0.609375q-0.28125 0.1875 -0.625 0.125q-0.34375 -0.078125 -0.625 -0.359375q-0.96876526 -1.03125 -2.4375153 -1.03125q-1.015625 0 -1.796875 0.46875q-0.78125 0.46875 -1.21875 1.3125q-0.4375 0.84375 -0.4375 1.984375q0 1.078125 0.4375 1.921875q0.453125 0.828125 1.25 1.328125q0.8125 0.484375 1.875 0.484375q0.6875 0 1.21875 -0.171875q0.53125 -0.171875 0.96876526 -0.53125q0.328125 -0.265625 0.65625 -0.28125q0.34375 -0.03125 0.609375 0.1875q0.34375 0.28125 0.375 0.625q0.046875 0.34375 -0.234375 0.625q-1.4375 1.34375 -3.5937653 1.34375zm12.191879 0q-1.65625 0 -2.953125 -0.703125q-1.28125 -0.71875 -2.015625 -1.96875q-0.734375 -1.25 -0.734375 -2.859375q0 -1.640625 0.6875 -2.890625q0.703125 -1.25 1.921875 -1.953125q1.21875 -0.71875 2.796875 -0.71875q1.5625 0 2.671875 0.6875q1.125 0.6875 1.71875 1.90625q0.59375 1.203125 0.59375 2.78125q0 0.375 -0.265625 0.625q-0.265625 0.25 -0.65625 0.25l-8.0625 0l0 -1.59375l8.0 0l-0.828125 0.5625q-0.015625 -1.0 -0.390625 -1.78125q-0.375 -0.796875 -1.078125 -1.25q-0.703125 -0.46875 -1.703125 -0.46875q-1.140625 0 -1.953125 0.5q-0.8125 0.5 -1.234375 1.375q-0.40625 0.859375 -0.40625 1.96875q0 1.09375 0.5 1.953125q0.5 0.859375 1.375 1.359375q0.875 0.5 2.015625 0.5q0.625 0 1.265625 -0.21875q0.65625 -0.234375 1.0625 -0.546875q0.296875 -0.21875 0.640625 -0.21875q0.359375 -0.015625 0.609375 0.203125q0.34375 0.296875 0.359375 0.65625q0.03125 0.359375 -0.3125 0.625q-0.6875 0.546875 -1.703125 0.890625q-1.0 0.328125 -1.921875 0.328125zm12.435608 0.125q-1.265625 0 -2.4375 -0.390625q-1.15625 -0.40625 -2.015625 -1.125q-0.859375 -0.734375 -1.265625 -1.671875q-0.1875 -0.421875 0.015625 -0.78125q0.203125 -0.359375 0.703125 -0.453125q0.359375 -0.078125 0.703125 0.109375q0.359375 0.1875 0.546875 0.5625q0.234375 0.5 0.78125 0.921875q0.5625 0.421875 1.328125 0.6875q0.78125 0.25 1.640625 0.25q0.96875 0 1.78125 -0.296875q0.8125 -0.296875 1.3125 -0.859375q0.5 -0.578125 0.5 -1.421875q0 -1.046875 -0.84375 -1.890625q-0.828125 -0.84375 -2.71875 -1.046875q-2.484375 -0.234375 -3.90625 -1.453125q-1.421875 -1.21875 -1.421875 -3.03125q0 -1.3125 0.734375 -2.234375q0.75 -0.921875 2.015625 -1.390625q1.28125 -0.484375 2.828125 -0.484375q1.21875 0 2.125 0.34375q0.921875 0.328125 1.59375 0.9375q0.6875 0.59375 1.1875 1.421875q0.28125 0.4375 0.21875 0.828125q-0.046875 0.390625 -0.375 0.609375q-0.390625 0.234375 -0.828125 0.09375q-0.4375 -0.140625 -0.65625 -0.515625q-0.3125 -0.578125 -0.78125 -0.96875q-0.453125 -0.40625 -1.078125 -0.640625q-0.625 -0.234375 -1.453125 -0.234375q-1.484375 -0.015625 -2.484375 0.5625q-1.0 0.5625 -1.0 1.734375q0 0.609375 0.296875 1.15625q0.3125 0.546875 1.140625 0.953125q0.84375 0.390625 2.40625 0.5625q2.375 0.234375 3.703125 1.453125q1.328125 1.203125 1.328125 3.1875q0 1.125 -0.46875 1.96875q-0.46875 0.84375 -1.265625 1.421875q-0.78125 0.5625 -1.796875 0.84375q-1.0 0.28125 -2.09375 0.28125zm13.166229 -0.125q-1.453125 0 -2.625 -0.71875q-1.15625 -0.734375 -1.828125 -1.984375q-0.671875 -1.25 -0.671875 -2.828125q0 -1.59375 0.734375 -2.84375q0.734375 -1.265625 1.984375 -1.984375q1.25 -0.734375 2.8125 -0.734375q1.546875 0 2.78125 0.734375q1.25 0.71875 1.984375 1.984375q0.734375 1.25 0.734375 2.84375l-0.78125 0q0 1.578125 -0.671875 2.828125q-0.671875 1.25 -1.84375 1.984375q-1.15625 0.71875 -2.609375 0.71875zm0.40625 -1.796875q1.015625 0 1.8125 -0.484375q0.796875 -0.5 1.25 -1.34375q0.46875 -0.859375 0.46875 -1.90625q0 -1.09375 -0.46875 -1.9375q-0.453125 -0.84375 -1.25 -1.328125q-0.796875 -0.5 -1.8125 -0.5q-1.0 0 -1.8125 0.5q-0.8125 0.484375 -1.28125 1.328125q-0.46875 0.84375 -0.46875 1.9375q0 1.046875 0.46875 1.90625q0.46875 0.84375 1.28125 1.34375q0.8125 0.484375 1.8125 0.484375zm4.46875 1.734375q-0.4375 0 -0.734375 -0.28125q-0.28125 -0.296875 -0.28125 -0.734375l0 -3.0625l0.375 -2.125l1.671875 0.734375l0 4.453125q0 0.4375 -0.296875 0.734375q-0.28125 0.28125 -0.734375 0.28125zm18.421875 0q-0.4375 0 -0.734375 -0.28125q-0.28125 -0.296875 -0.28125 -0.734375l0 -5.71875q0 -1.265625 -0.625 -1.875q-0.609375 -0.609375 -1.609375 -0.609375q-1.046875 0 -1.71875 0.71875q-0.671875 0.71875 -0.671875 1.84375l-1.65625 0q0 -1.296875 0.5625 -2.28125q0.5625 -1.0 1.5625 -1.5625q1.015625 -0.5625 2.3125 -0.5625q1.140625 0 2.015625 0.5q0.890625 0.5 1.375 1.484375q0.5 0.96875 0.5 2.34375l0 5.71875q0 0.4375 -0.28125 0.734375q-0.28125 0.28125 -0.75 0.28125zm-13.34375 0q-0.4375 0 -0.734375 -0.28125q-0.28125 -0.296875 -0.28125 -0.734375l0 -8.90625q0 -0.453125 0.28125 -0.734375q0.296875 -0.28125 0.734375 -0.28125q0.46875 0 0.75 0.28125q0.28125 0.28125 0.28125 0.734375l0 8.90625q0 0.4375 -0.28125 0.734375q-0.28125 0.28125 -0.75 0.28125zm6.6875 0q-0.4375 0 -0.734375 -0.28125q-0.28125 -0.296875 -0.28125 -0.734375l0 -5.71875q0 -1.265625 -0.625 -1.875q-0.625 -0.609375 -1.625 -0.609375q-1.03125 0 -1.71875 0.71875q-0.671875 0.71875 -0.671875 1.84375l-1.265625 0q0 -1.296875 0.515625 -2.28125q0.53125 -1.0 1.4375 -1.5625q0.921875 -0.5625 2.109375 -0.5625q1.140625 0 2.015625 0.5q0.890625 0.5 1.375 1.484375q0.484375 0.96875 0.484375 2.34375l0 5.71875q0 0.4375 -0.28125 0.734375q-0.28125 0.28125 -0.734375 0.28125zm12.072479 4.671875q-0.4375 0 -0.734375 -0.296875q-0.28125 -0.296875 -0.28125 -0.734375l0 -9.109375q0.015625 -1.59375 0.734375 -2.84375q0.734375 -1.265625 1.96875 -1.984375q1.234375 -0.734375 2.796875 -0.734375q1.578125 0 2.8125 0.734375q1.25 0.71875 1.96875 1.984375q0.734375 1.25 0.734375 2.84375q0 1.578125 -0.671875 2.828125q-0.65625 1.25 -1.828125 1.984375q-1.15625 0.71875 -2.609375 0.71875q-1.1875 0 -2.171875 -0.484375q-0.984375 -0.5 -1.6875 -1.328125l0 5.390625q0 0.4375 -0.28125 0.734375q-0.28125 0.296875 -0.75 0.296875zm4.484375 -6.40625q1.015625 0 1.8125 -0.484375q0.8125 -0.5 1.28125 -1.34375q0.46875 -0.859375 0.46875 -1.90625q0 -1.09375 -0.46875 -1.9375q-0.46875 -0.84375 -1.28125 -1.328125q-0.796875 -0.5 -1.8125 -0.5q-1.0 0 -1.8125 0.5q-0.796875 0.484375 -1.265625 1.328125q-0.453125 0.84375 -0.453125 1.9375q0 1.046875 0.453125 1.90625q0.46875 0.84375 1.265625 1.34375q0.8125 0.484375 1.8125 0.484375zm11.169342 1.71875q-0.890625 0 -1.578125 -0.46875q-0.671875 -0.484375 -1.046875 -1.3125q-0.375 -0.84375 -0.375 -1.921875l0 -10.921875q0 -0.4375 0.265625 -0.71875q0.28125 -0.28125 0.734375 -0.28125q0.4375 0 0.71875 0.28125q0.28125 0.28125 0.28125 0.71875l0 10.921875q0 0.75 0.265625 1.234375q0.28125 0.46875 0.734375 0.46875l0.5 0q0.390625 0 0.640625 0.28125q0.25 0.28125 0.25 0.71875q0 0.4375 -0.375 0.71875q-0.375 0.28125 -0.984375 0.28125l-0.03125 0zm7.931244 0.078125q-1.65625 0 -2.953125 -0.703125q-1.28125 -0.71875 -2.015625 -1.96875q-0.734375 -1.25 -0.734375 -2.859375q0 -1.640625 0.6875 -2.890625q0.703125 -1.25 1.921875 -1.953125q1.21875 -0.71875 2.796875 -0.71875q1.5625 0 2.671875 0.6875q1.125 0.6875 1.71875 1.90625q0.59375 1.203125 0.59375 2.78125q0 0.375 -0.265625 0.625q-0.265625 0.25 -0.65625 0.25l-8.0625 0l0 -1.59375l8.0 0l-0.828125 0.5625q-0.015625 -1.0 -0.390625 -1.78125q-0.375 -0.796875 -1.078125 -1.25q-0.703125 -0.46875 -1.703125 -0.46875q-1.140625 0 -1.953125 0.5q-0.8125 0.5 -1.234375 1.375q-0.40625 0.859375 -0.40625 1.96875q0 1.09375 0.5 1.953125q0.5 0.859375 1.375 1.359375q0.875 0.5 2.015625 0.5q0.625 0 1.265625 -0.21875q0.65625 -0.234375 1.0625 -0.546875q0.296875 -0.21875 0.640625 -0.21875q0.359375 -0.015625 0.609375 0.203125q0.34375 0.296875 0.359375 0.65625q0.03125 0.359375 -0.3125 0.625q-0.6875 0.546875 -1.703125 0.890625q-1.0 0.328125 -1.921875 0.328125zm8.263733 -6.921875q0 -1.203125 0.578125 -2.140625q0.59375 -0.953125 1.59375 -1.515625q1.0 -0.5625 2.203125 -0.5625q1.203125 0 1.796875 0.390625q0.59375 0.390625 0.453125 0.9375q-0.0625 0.28125 -0.234375 0.4375q-0.171875 0.140625 -0.390625 0.1875q-0.21875 0.03125 -0.484375 -0.03125q-1.28125 -0.265625 -2.296875 -0.03125q-1.015625 0.21875 -1.609375 0.8125q-0.59375 0.59375 -0.59375 1.515625l-1.015625 0zm0.015625 6.84375q-0.484375 0 -0.75 -0.25q-0.25 -0.25 -0.25 -0.75l0 -8.9375q0 -0.484375 0.25 -0.734375q0.265625 -0.265625 0.75 -0.265625q0.5 0 0.75 0.25q0.25 0.25 0.25 0.75l0 8.9375q0 0.484375 -0.25 0.75q-0.25 0.25 -0.75 0.25z" fill-rule="nonzero"/><path fill="#000000" fill-opacity="0.0" d="m5.9925685 226.82495l1216.0315 0l0 59.77951l-1216.0315 0z" fill-rule="evenodd"/><path stroke="#000000" stroke-width="3.0" stroke-linejoin="round" stroke-linecap="butt" d="m5.9925685 226.82495l1216.0315 0l0 59.77951l-1216.0315 0z" fill-rule="evenodd"/><path fill="#000000" d="m527.686 267.82495q-0.9375 0 -1.4375 -0.796875q-0.5 -0.796875 -0.09375 -1.703125l9.359375 -22.359375q0.5 -1.171875 1.640625 -1.171875q1.203125 0 1.625 1.171875l9.40625 22.421875q0.359375 0.9375 -0.125 1.6875q-0.46875 0.75 -1.4375 0.75q-0.5 0 -0.953125 -0.28125q-0.453125 -0.28125 -0.65625 -0.78125l-8.265625 -20.53125l0.9375 0l-8.390625 20.53125q-0.234375 0.53125 -0.6875 0.796875q-0.453125 0.265625 -0.921875 0.265625zm1.765625 -5.734375l1.34375 -2.859375l13.0625 0l1.328125 2.859375l-15.734375 0zm23.992126 -5.65625q0 -2.0 0.984375 -3.578125q0.984375 -1.59375 2.65625 -2.53125q1.671875 -0.9375 3.671875 -0.9375q2.0 0 2.96875 0.65625q0.984375 0.65625 0.765625 1.546875q-0.109375 0.46875 -0.390625 0.71875q-0.28125 0.25 -0.65625 0.328125q-0.359375 0.0625 -0.796875 -0.046875q-2.125 -0.4375 -3.828125 -0.0625q-1.703125 0.359375 -2.6875 1.359375q-0.984375 1.0 -0.984375 2.546875l-1.703125 0zm0.046875 11.390625q-0.8125 0 -1.25 -0.40625q-0.421875 -0.421875 -0.421875 -1.265625l0 -14.890625q0 -0.796875 0.421875 -1.234375q0.4375 -0.4375 1.25 -0.4375q0.828125 0 1.234375 0.421875q0.421875 0.421875 0.421875 1.25l0 14.890625q0 0.8125 -0.421875 1.25q-0.40625 0.421875 -1.234375 0.421875zm21.457886 0.140625q-2.671875 0 -4.75 -1.21875q-2.078125 -1.21875 -3.265625 -3.296875q-1.1875 -2.09375 -1.1875 -4.71875q0 -2.703125 1.171875 -4.796875q1.171875 -2.109375 3.203125 -3.28125q2.03125 -1.1875 4.65625 -1.1875q1.96875 0 3.59375 0.75q1.640625 0.75 2.9375 2.25q0.46875 0.53125 0.328125 1.09375q-0.125 0.5625 -0.71875 1.0q-0.46875 0.328125 -1.046875 0.21875q-0.5625 -0.125 -1.015625 -0.578125q-1.640625 -1.734375 -4.078125 -1.734375q-1.6875 0 -3.0 0.78125q-1.296875 0.78125 -2.03125 2.1875q-0.734375 1.390625 -0.734375 3.296875q0 1.796875 0.75 3.203125q0.75 1.390625 2.078125 2.21875q1.34375 0.8125 3.109375 0.8125q1.171875 0 2.046875 -0.28125q0.890625 -0.296875 1.625 -0.890625q0.53125 -0.4375 1.09375 -0.484375q0.5625 -0.046875 1.0 0.3125q0.5625 0.46875 0.625 1.0625q0.078125 0.578125 -0.390625 1.046875q-2.40625 2.234375 -6.0 2.234375zm13.467651 -6.765625q-0.734375 0 -1.21875 -0.484375q-0.484375 -0.484375 -0.484375 -1.21875l0 -16.0q0 -0.765625 0.484375 -1.234375q0.484375 -0.46875 1.21875 -0.46875q0.765625 0 1.234375 0.46875q0.46875 0.46875 0.46875 1.234375l0 16.0q0 0.734375 -0.46875 1.21875q-0.46875 0.484375 -1.234375 0.484375zm13.6875 6.65625q-0.734375 0 -1.21875 -0.484375q-0.46875 -0.484375 -0.46875 -1.21875l0 -8.1875q0 -1.90625 -0.703125 -3.109375q-0.703125 -1.203125 -1.890625 -1.78125q-1.171875 -0.578125 -2.71875 -0.578125q-1.390625 0 -2.53125 0.5625q-1.125 0.5625 -1.796875 1.515625q-0.65625 0.953125 -0.65625 2.1875l-2.109375 0q0 -2.109375 1.015625 -3.75q1.015625 -1.65625 2.78125 -2.609375q1.765625 -0.96875 3.96875 -0.96875q2.296875 0 4.109375 0.984375q1.828125 0.96875 2.875 2.875q1.046875 1.90625 1.046875 4.671875l0 8.1875q0 0.734375 -0.484375 1.21875q-0.484375 0.484375 -1.21875 0.484375zm-13.6875 0q-0.734375 0 -1.21875 -0.484375q-0.484375 -0.484375 -0.484375 -1.21875l0 -14.859375q0 -0.765625 0.484375 -1.234375q0.484375 -0.46875 1.21875 -0.46875q0.765625 0 1.234375 0.46875q0.46875 0.46875 0.46875 1.234375l0 14.859375q0 0.734375 -0.46875 1.21875q-0.46875 0.484375 -1.234375 0.484375zm29.622437 0.109375q-2.765625 0 -4.921875 -1.1875q-2.140625 -1.1875 -3.359375 -3.265625q-1.21875 -2.09375 -1.21875 -4.78125q0 -2.734375 1.140625 -4.8125q1.15625 -2.09375 3.1875 -3.265625q2.046875 -1.1875 4.671875 -1.1875q2.609375 0 4.46875 1.15625q1.859375 1.140625 2.84375 3.15625q0.984375 2.015625 0.984375 4.640625q0 0.640625 -0.4375 1.0625q-0.421875 0.40625 -1.09375 0.40625l-13.421875 0l0 -2.65625l13.328125 0l-1.375 0.921875q-0.03125 -1.65625 -0.671875 -2.96875q-0.625 -1.328125 -1.796875 -2.09375q-1.15625 -0.765625 -2.828125 -0.765625q-1.890625 0 -3.25 0.84375q-1.34375 0.828125 -2.046875 2.28125q-0.703125 1.4375 -0.703125 3.28125q0 1.828125 0.828125 3.265625q0.84375 1.421875 2.3125 2.265625q1.46875 0.828125 3.359375 0.828125q1.03125 0 2.109375 -0.375q1.09375 -0.390625 1.765625 -0.890625q0.5 -0.359375 1.078125 -0.375q0.578125 -0.03125 1.015625 0.34375q0.5625 0.5 0.59375 1.109375q0.03125 0.59375 -0.53125 1.015625q-1.125 0.90625 -2.8125 1.484375q-1.6875 0.5625 -3.21875 0.5625zm18.759216 -0.140625q-1.65625 0 -3.0 -0.84375q-1.328125 -0.859375 -2.09375 -2.3125q-0.765625 -1.46875 -0.765625 -3.3125l0 -15.890625q0 -0.734375 0.46875 -1.203125q0.46875 -0.46875 1.203125 -0.46875q0.734375 0 1.1875 0.46875q0.46875 0.46875 0.46875 1.203125l0 15.890625q0 1.34375 0.734375 2.25q0.734375 0.890625 1.796875 0.890625l1.140625 0q0.59375 0 1.015625 0.46875q0.421875 0.453125 0.421875 1.1875q0 0.734375 -0.5625 1.203125q-0.546875 0.46875 -1.40625 0.46875l-0.609375 0zm-7.390625 -14.703125q-0.703125 0 -1.140625 -0.390625q-0.421875 -0.40625 -0.421875 -1.0q0 -0.671875 0.421875 -1.0625q0.4375 -0.40625 1.140625 -0.40625l7.703125 0q0.6875 0 1.125 0.40625q0.4375 0.390625 0.4375 1.0625q0 0.59375 -0.4375 1.0q-0.4375 0.390625 -1.125 0.390625l-7.703125 0zm17.395813 22.703125q-0.328125 0 -0.796875 -0.203125q-1.46875 -0.671875 -0.796875 -2.09375l10.15625 -22.96875q0.671875 -1.390625 2.109375 -0.796875q1.5 0.625 0.828125 2.09375l-10.203125 22.9375q-0.390625 1.03125 -1.296875 1.03125zm3.9375 -8.734375q-0.640625 0.265625 -1.1875 0.046875q-0.546875 -0.21875 -0.890625 -0.84375l-7.625 -14.5q-0.328125 -0.625 -0.078125 -1.203125q0.25 -0.59375 0.875 -0.859375q0.640625 -0.265625 1.203125 -0.046875q0.5625 0.203125 0.859375 0.84375l7.3125 14.5q0.328125 0.625 0.234375 1.21875q-0.078125 0.578125 -0.703125 0.84375zm12.463806 8.53125q-0.734375 0 -1.21875 -0.484375q-0.484375 -0.484375 -0.484375 -1.21875l0 -15.1875q0.03125 -2.640625 1.234375 -4.734375q1.203125 -2.109375 3.265625 -3.3125q2.0625 -1.21875 4.671875 -1.21875q2.625 0 4.6875 1.21875q2.078125 1.203125 3.28125 3.3125q1.21875 2.09375 1.21875 4.734375q0 2.625 -1.125 4.71875q-1.109375 2.078125 -3.046875 3.296875q-1.921875 1.21875 -4.359375 1.21875q-1.96875 0 -3.625 -0.8125q-1.640625 -0.828125 -2.796875 -2.234375l0 9.0q0 0.734375 -0.46875 1.21875q-0.46875 0.484375 -1.234375 0.484375zm7.46875 -10.65625q1.6875 0 3.015625 -0.8125q1.34375 -0.828125 2.125 -2.234375q0.78125 -1.421875 0.78125 -3.1875q0 -1.796875 -0.78125 -3.21875q-0.78125 -1.421875 -2.125 -2.234375q-1.328125 -0.8125 -3.015625 -0.8125q-1.671875 0 -3.03125 0.8125q-1.34375 0.8125 -2.109375 2.234375q-0.765625 1.421875 -0.765625 3.21875q0 1.765625 0.765625 3.1875q0.765625 1.40625 2.109375 2.234375q1.359375 0.8125 3.03125 0.8125zm22.820251 3.0q-2.765625 0 -4.921875 -1.1875q-2.140625 -1.1875 -3.359375 -3.265625q-1.21875 -2.09375 -1.21875 -4.78125q0 -2.734375 1.140625 -4.8125q1.15625 -2.09375 3.1875 -3.265625q2.046875 -1.1875 4.671875 -1.1875q2.609375 0 4.46875 1.15625q1.859375 1.140625 2.84375 3.15625q0.984375 2.015625 0.984375 4.640625q0 0.640625 -0.4375 1.0625q-0.421875 0.40625 -1.09375 0.40625l-13.421875 0l0 -2.65625l13.328125 0l-1.375 0.921875q-0.03125 -1.65625 -0.671875 -2.96875q-0.625 -1.328125 -1.796875 -2.09375q-1.15625 -0.765625 -2.828125 -0.765625q-1.890625 0 -3.25 0.84375q-1.34375 0.828125 -2.046875 2.28125q-0.703125 1.4375 -0.703125 3.28125q0 1.828125 0.828125 3.265625q0.84375 1.421875 2.3125 2.265625q1.46875 0.828125 3.359375 0.828125q1.03125 0 2.109375 -0.375q1.09375 -0.390625 1.765625 -0.890625q0.5 -0.359375 1.078125 -0.375q0.578125 -0.03125 1.015625 0.34375q0.5625 0.5 0.59375 1.109375q0.03125 0.59375 -0.53125 1.015625q-1.125 0.90625 -2.8125 1.484375q-1.6875 0.5625 -3.21875 0.5625z" fill-rule="nonzero"/><path fill="#000000" fill-opacity="0.0" d="m295.7296 419.03806l256.12598 0l0 43.62204l-256.12598 0z" fill-rule="evenodd"/><path stroke="#000000" stroke-width="2.0" stroke-linejoin="round" stroke-linecap="butt" d="m295.7296 419.03806l256.12598 0l0 43.62204l-256.12598 0z" fill-rule="evenodd"/><path fill="#000000" d="m315.40274 447.4412q-1.625 0 -3.03125 -0.609375q-1.40625 -0.609375 -2.46875 -1.703125q-1.046875 -1.09375 -1.640625 -2.546875q-0.578125 -1.46875 -0.578125 -3.15625q0 -1.6875 0.578125 -3.140625q0.59375 -1.453125 1.640625 -2.53125q1.0625 -1.09375 2.453125 -1.703125q1.40625 -0.625 3.046875 -0.625q1.546875 0 2.65625 0.40625q1.109375 0.390625 2.21875 1.3125q0.171875 0.109375 0.25 0.25q0.09375 0.125 0.125 0.265625q0.03125 0.125 0.03125 0.296875q0 0.375 -0.28125 0.625q-0.265625 0.25 -0.640625 0.28125q-0.375 0.03125 -0.734375 -0.25q-0.75 -0.640625 -1.546875 -0.96875q-0.78125 -0.34375 -2.078125 -0.34375q-1.1875 0 -2.234375 0.484375q-1.03125 0.46875 -1.828125 1.3125q-0.78125 0.84375 -1.21875 1.953125q-0.4375 1.109375 -0.4375 2.375q0 1.265625 0.4375 2.390625q0.4375 1.109375 1.21875 1.953125q0.796875 0.828125 1.828125 1.296875q1.046875 0.46875 2.234375 0.46875q1.015625 0 1.921875 -0.34375q0.921875 -0.359375 1.765625 -0.96875q0.359375 -0.265625 0.703125 -0.234375q0.34375 0.03125 0.578125 0.28125q0.25 0.25 0.25 0.6875q0 0.203125 -0.078125 0.390625q-0.078125 0.1875 -0.234375 0.34375q-1.09375 0.859375 -2.328125 1.3125q-1.21875 0.4375 -2.578125 0.4375zm10.946228 -0.203125q-0.890625 0 -1.578125 -0.46875q-0.671875 -0.484375 -1.046875 -1.3125q-0.375 -0.84375 -0.375 -1.921875l0 -10.921875q0 -0.4375 0.265625 -0.71875q0.28125 -0.28125 0.734375 -0.28125q0.4375 0 0.71875 0.28125q0.28125 0.28125 0.28125 0.71875l0 10.921875q0 0.75 0.265625 1.234375q0.28125 0.46875 0.734375 0.46875l0.5 0q0.390625 0 0.640625 0.28125q0.25 0.28125 0.25 0.71875q0 0.4375 -0.375 0.71875q-0.375 0.28125 -0.984375 0.28125l-0.03125 0zm8.0 0.09375q-1.390625 0 -2.484375 -0.578125q-1.078125 -0.59375 -1.71875 -1.734375q-0.625 -1.140625 -0.625 -2.796875l0 -4.921875q0 -0.4375 0.28125 -0.71875q0.296875 -0.296875 0.734375 -0.296875q0.453125 0 0.734375 0.296875q0.296875 0.28125 0.296875 0.71875l0 4.921875q0 1.109375 0.40625 1.84375q0.421875 0.734375 1.140625 1.09375q0.734375 0.34375 1.625 0.34375q0.859375 0 1.53125 -0.34375q0.671875 -0.34375 1.0625 -0.921875q0.40625 -0.578125 0.40625 -1.296875l1.265625 0q0 1.234375 -0.609375 2.234375q-0.609375 1.0 -1.671875 1.578125q-1.046875 0.578125 -2.375 0.578125zm4.40625 -0.09375q-0.4375 0 -0.734375 -0.28125q-0.28125 -0.296875 -0.28125 -0.734375l0 -8.921875q0 -0.46875 0.28125 -0.734375q0.296875 -0.28125 0.734375 -0.28125q0.46875 0 0.75 0.28125q0.28125 0.265625 0.28125 0.734375l0 8.921875q0 0.4375 -0.28125 0.734375q-0.28125 0.28125 -0.75 0.28125zm8.608734 0.078125q-1.40625 0 -2.59375 -0.421875q-1.1875 -0.4375 -1.84375 -1.09375q-0.296875 -0.328125 -0.25 -0.734375q0.046875 -0.40625 0.390625 -0.671875q0.390625 -0.3125 0.78125 -0.265625q0.390625 0.046875 0.671875 0.34375q0.34375 0.390625 1.09375 0.71875q0.75 0.328125 1.671875 0.328125q1.15625 0 1.765625 -0.375q0.609375 -0.390625 0.625 -0.984375q0.03125 -0.609375 -0.5625 -1.046875q-0.59375 -0.4375 -2.15625 -0.71875q-2.015625 -0.390625 -2.921875 -1.1875q-0.90625 -0.8125 -0.90625 -1.96875q0 -1.015625 0.59375 -1.6875q0.59375 -0.671875 1.53125 -1.0q0.953125 -0.328125 1.96875 -0.328125q1.3125 0 2.328125 0.421875q1.03125 0.40625 1.625 1.15625q0.28125 0.3125 0.265625 0.671875q-0.015625 0.34375 -0.34375 0.578125q-0.3125 0.234375 -0.765625 0.15625q-0.4375 -0.09375 -0.734375 -0.375q-0.5 -0.46875 -1.078125 -0.640625q-0.578125 -0.1875 -1.34375 -0.1875q-0.875 0 -1.484375 0.296875q-0.609375 0.296875 -0.609375 0.875q0 0.359375 0.1875 0.65625q0.1875 0.28125 0.75 0.515625q0.5625 0.234375 1.640625 0.453125q1.5 0.296875 2.359375 0.765625q0.875 0.453125 1.25 1.0625q0.390625 0.609375 0.390625 1.40625q0 0.921875 -0.5 1.671875q-0.484375 0.734375 -1.4375 1.171875q-0.9375 0.4375 -2.359375 0.4375zm10.859985 -0.078125q-1.0 0 -1.796875 -0.5q-0.796875 -0.515625 -1.265625 -1.390625q-0.453125 -0.890625 -0.453125 -1.984375l0 -9.546875q0 -0.4375 0.265625 -0.71875q0.28125 -0.28125 0.734375 -0.28125q0.4375 0 0.71875 0.28125q0.28125 0.28125 0.28125 0.71875l0 9.546875q0 0.796875 0.4375 1.34375q0.4375 0.53125 1.078125 0.53125l0.671875 0q0.359375 0 0.609375 0.28125q0.25 0.28125 0.25 0.71875q0 0.4375 -0.328125 0.71875q-0.328125 0.28125 -0.84375 0.28125l-0.359375 0zm-4.4375 -8.8125q-0.421875 0 -0.6875 -0.234375q-0.25 -0.25 -0.25 -0.609375q0 -0.40625 0.25 -0.640625q0.265625 -0.25 0.6875 -0.25l4.609375 0q0.421875 0 0.6875 0.25q0.265625 0.234375 0.265625 0.640625q0 0.359375 -0.265625 0.609375q-0.265625 0.234375 -0.6875 0.234375l-4.609375 0zm13.613739 8.890625q-1.65625 0 -2.953125 -0.703125q-1.28125 -0.71875 -2.015625 -1.96875q-0.734375 -1.25 -0.734375 -2.859375q0 -1.640625 0.6875 -2.890625q0.703125 -1.25 1.921875 -1.953125q1.21875 -0.71875 2.796875 -0.71875q1.5625 0 2.671875 0.6875q1.125 0.6875 1.71875 1.90625q0.59375 1.203125 0.59375 2.78125q0 0.375 -0.265625 0.625q-0.265625 0.25 -0.65625 0.25l-8.0625 0l0 -1.59375l8.0 0l-0.828125 0.5625q-0.015625 -1.0 -0.390625 -1.78125q-0.375 -0.796875 -1.078125 -1.25q-0.703125 -0.46875 -1.703125 -0.46875q-1.140625 0 -1.953125 0.5q-0.8125 0.5 -1.234375 1.375q-0.40625 0.859375 -0.40625 1.96875q0 1.09375 0.5 1.953125q0.5 0.859375 1.375 1.359375q0.875 0.5 2.015625 0.5q0.625 0 1.265625 -0.21875q0.65625 -0.234375 1.0625 -0.546875q0.296875 -0.21875 0.640625 -0.21875q0.359375 -0.015625 0.609375 0.203125q0.34375 0.296875 0.359375 0.65625q0.03125 0.359375 -0.3125 0.625q-0.6875 0.546875 -1.703125 0.890625q-1.0 0.328125 -1.921875 0.328125zm8.263733 -6.921875q0 -1.203125 0.578125 -2.140625q0.59375 -0.953125 1.59375 -1.515625q1.0 -0.5625 2.203125 -0.5625q1.203125 0 1.796875 0.390625q0.59375 0.390625 0.453125 0.9375q-0.0625 0.28125 -0.234375 0.4375q-0.171875 0.140625 -0.390625 0.1875q-0.21875 0.03125 -0.484375 -0.03125q-1.28125 -0.265625 -2.296875 -0.03125q-1.015625 0.21875 -1.609375 0.8125q-0.59375 0.59375 -0.59375 1.515625l-1.015625 0zm0.015625 6.84375q-0.484375 0 -0.75 -0.25q-0.25 -0.25 -0.25 -0.75l0 -8.9375q0 -0.484375 0.25 -0.734375q0.265625 -0.265625 0.75 -0.265625q0.5 0 0.75 0.25q0.25 0.25 0.25 0.75l0 8.9375q0 0.484375 -0.25 0.75q-0.25 0.25 -0.75 0.25zm15.923126 0.203125q-1.625 0 -3.03125 -0.609375q-1.40625 -0.609375 -2.46875 -1.703125q-1.046875 -1.09375 -1.640625 -2.546875q-0.578125 -1.46875 -0.578125 -3.15625q0 -1.6875 0.578125 -3.140625q0.59375 -1.453125 1.640625 -2.53125q1.0625 -1.09375 2.453125 -1.703125q1.40625 -0.625 3.046875 -0.625q1.546875 0 2.65625 0.40625q1.109375 0.390625 2.21875 1.3125q0.171875 0.109375 0.25 0.25q0.09375 0.125 0.125 0.265625q0.03125 0.125 0.03125 0.296875q0 0.375 -0.28125 0.625q-0.265625 0.25 -0.640625 0.28125q-0.375 0.03125 -0.734375 -0.25q-0.75 -0.640625 -1.546875 -0.96875q-0.78125 -0.34375 -2.078125 -0.34375q-1.1875 0 -2.234375 0.484375q-1.03125 0.46875 -1.828125 1.3125q-0.78125 0.84375 -1.21875 1.953125q-0.4375 1.109375 -0.4375 2.375q0 1.265625 0.4375 2.390625q0.4375 1.109375 1.21875 1.953125q0.796875 0.828125 1.828125 1.296875q1.046875 0.46875 2.234375 0.46875q1.015625 0 1.921875 -0.34375q0.921875 -0.359375 1.765625 -0.96875q0.359375 -0.265625 0.703125 -0.234375q0.34375 0.03125 0.578125 0.28125q0.25 0.25 0.25 0.6875q0 0.203125 -0.078125 0.390625q-0.078125 0.1875 -0.234375 0.34375q-1.09375 0.859375 -2.328125 1.3125q-1.21875 0.4375 -2.578125 0.4375zm12.67746 -0.125q-1.65625 0 -2.953125 -0.703125q-1.28125 -0.71875 -2.015625 -1.96875q-0.734375 -1.25 -0.734375 -2.859375q0 -1.640625 0.6875 -2.890625q0.703125 -1.25 1.921875 -1.953125q1.21875 -0.71875 2.796875 -0.71875q1.5625 0 2.671875 0.6875q1.125 0.6875 1.71875 1.90625q0.59375 1.203125 0.59375 2.78125q0 0.375 -0.265625 0.625q-0.265625 0.25 -0.65625 0.25l-8.0625 0l0 -1.59375l8.0 0l-0.828125 0.5625q-0.015625 -1.0 -0.390625 -1.78125q-0.375 -0.796875 -1.078125 -1.25q-0.703125 -0.46875 -1.703125 -0.46875q-1.140625 0 -1.953125 0.5q-0.8125 0.5 -1.234375 1.375q-0.40625 0.859375 -0.40625 1.96875q0 1.09375 0.5 1.953125q0.5 0.859375 1.375 1.359375q0.875 0.5 2.015625 0.5q0.625 0 1.265625 -0.21875q0.65625 -0.234375 1.0625 -0.546875q0.296875 -0.21875 0.640625 -0.21875q0.359375 -0.015625 0.609375 0.203125q0.34375 0.296875 0.359375 0.65625q0.03125 0.359375 -0.3125 0.625q-0.6875 0.546875 -1.703125 0.890625q-1.0 0.328125 -1.921875 0.328125zm16.529358 -0.0625q-0.453125 0 -0.75 -0.28125q-0.28125 -0.296875 -0.28125 -0.734375l0 -4.921875q0 -1.140625 -0.421875 -1.859375q-0.40625 -0.71875 -1.125 -1.0625q-0.703125 -0.359375 -1.625 -0.359375q-0.84375 0 -1.53125 0.34375q-0.671875 0.34375 -1.078125 0.921875q-0.390625 0.5625 -0.390625 1.296875l-1.265625 0q0 -1.265625 0.609375 -2.25q0.609375 -0.984375 1.671875 -1.5625q1.0625 -0.59375 2.375 -0.59375q1.390625 0 2.46875 0.59375q1.09375 0.59375 1.71875 1.734375q0.640625 1.140625 0.640625 2.796875l0 4.921875q0 0.4375 -0.296875 0.734375q-0.28125 0.28125 -0.71875 0.28125zm-8.234375 0q-0.4375 0 -0.734375 -0.28125q-0.28125 -0.296875 -0.28125 -0.734375l0 -8.921875q0 -0.453125 0.28125 -0.734375q0.296875 -0.28125 0.734375 -0.28125q0.46875 0 0.75 0.28125q0.28125 0.28125 0.28125 0.734375l0 8.921875q0 0.4375 -0.28125 0.734375q-0.28125 0.28125 -0.75 0.28125zm16.608734 -0.015625q-1.0 0 -1.796875 -0.5q-0.796875 -0.515625 -1.265625 -1.390625q-0.453125 -0.890625 -0.453125 -1.984375l0 -9.546875q0 -0.4375 0.265625 -0.71875q0.28125 -0.28125 0.734375 -0.28125q0.4375 0 0.71875 0.28125q0.28125 0.28125 0.28125 0.71875l0 9.546875q0 0.796875 0.4375 1.34375q0.4375 0.53125 1.078125 0.53125l0.671875 0q0.359375 0 0.609375 0.28125q0.25 0.28125 0.25 0.71875q0 0.4375 -0.328125 0.71875q-0.328125 0.28125 -0.84375 0.28125l-0.359375 0zm-4.4375 -8.8125q-0.421875 0 -0.6875 -0.234375q-0.25 -0.25 -0.25 -0.609375q0 -0.40625 0.25 -0.640625q0.265625 -0.25 0.6875 -0.25l4.609375 0q0.421875 0 0.6875 0.25q0.265625 0.234375 0.265625 0.640625q0 0.359375 -0.265625 0.609375q-0.265625 0.234375 -0.6875 0.234375l-4.609375 0zm13.613739 8.890625q-1.65625 0 -2.953125 -0.703125q-1.28125 -0.71875 -2.015625 -1.96875q-0.734375 -1.25 -0.734375 -2.859375q0 -1.640625 0.6875 -2.890625q0.703125 -1.25 1.921875 -1.953125q1.21875 -0.71875 2.796875 -0.71875q1.5625 0 2.671875 0.6875q1.125 0.6875 1.71875 1.90625q0.59375 1.203125 0.59375 2.78125q0 0.375 -0.265625 0.625q-0.265625 0.25 -0.65625 0.25l-8.0625 0l0 -1.59375l8.0 0l-0.828125 0.5625q-0.015625 -1.0 -0.390625 -1.78125q-0.375 -0.796875 -1.078125 -1.25q-0.703125 -0.46875 -1.703125 -0.46875q-1.140625 0 -1.953125 0.5q-0.8125 0.5 -1.234375 1.375q-0.40625 0.859375 -0.40625 1.96875q0 1.09375 0.5 1.953125q0.5 0.859375 1.375 1.359375q0.875 0.5 2.015625 0.5q0.625 0 1.265625 -0.21875q0.65625 -0.234375 1.0625 -0.546875q0.296875 -0.21875 0.640625 -0.21875q0.359375 -0.015625 0.609375 0.203125q0.34375 0.296875 0.359375 0.65625q0.03125 0.359375 -0.3125 0.625q-0.6875 0.546875 -1.703125 0.890625q-1.0 0.328125 -1.921875 0.328125zm8.263733 -6.921875q0 -1.203125 0.578125 -2.140625q0.59375 -0.953125 1.59375 -1.515625q1.0 -0.5625 2.203125 -0.5625q1.203125 0 1.796875 0.390625q0.59375 0.390625 0.453125 0.9375q-0.0625 0.28125 -0.234375 0.4375q-0.171875 0.140625 -0.390625 0.1875q-0.21875 0.03125 -0.484375 -0.03125q-1.28125 -0.265625 -2.296875 -0.03125q-1.015625 0.21875 -1.609375 0.8125q-0.59375 0.59375 -0.59375 1.515625l-1.015625 0zm0.015625 6.84375q-0.484375 0 -0.75 -0.25q-0.25 -0.25 -0.25 -0.75l0 -8.9375q0 -0.484375 0.25 -0.734375q0.265625 -0.265625 0.75 -0.265625q0.5 0 0.75 0.25q0.25 0.25 0.25 0.75l0 8.9375q0 0.484375 -0.25 0.75q-0.25 0.25 -0.75 0.25zm13.876251 0.203125q-1.265625 0 -2.4375 -0.390625q-1.15625 -0.40625 -2.015625 -1.125q-0.859375 -0.734375 -1.265625 -1.671875q-0.1875 -0.421875 0.015625 -0.78125q0.203125 -0.359375 0.703125 -0.453125q0.359375 -0.078125 0.703125 0.109375q0.359375 0.1875 0.546875 0.5625q0.234375 0.5 0.78125 0.921875q0.5625 0.421875 1.328125 0.6875q0.78125 0.25 1.640625 0.25q0.96875 0 1.78125 -0.296875q0.8125 -0.296875 1.3125 -0.859375q0.5 -0.578125 0.5 -1.421875q0 -1.046875 -0.84375 -1.890625q-0.828125 -0.84375 -2.71875 -1.046875q-2.484375 -0.234375 -3.90625 -1.453125q-1.421875 -1.21875 -1.421875 -3.03125q0 -1.3125 0.734375 -2.234375q0.75 -0.921875 2.015625 -1.390625q1.28125 -0.484375 2.828125 -0.484375q1.21875 0 2.125 0.34375q0.921875 0.328125 1.59375 0.9375q0.6875 0.59375 1.1875 1.421875q0.28125 0.4375 0.21875 0.828125q-0.046875 0.390625 -0.375 0.609375q-0.390625 0.234375 -0.828125 0.09375q-0.4375 -0.140625 -0.65625 -0.515625q-0.3125 -0.578125 -0.78125 -0.96875q-0.453125 -0.40625 -1.078125 -0.640625q-0.625 -0.234375 -1.453125 -0.234375q-1.484375 -0.015625 -2.484375 0.5625q-1.0 0.5625 -1.0 1.734375q0 0.609375 0.296875 1.15625q0.3125 0.546875 1.140625 0.953125q0.84375 0.390625 2.40625 0.5625q2.375 0.234375 3.703125 1.453125q1.328125 1.203125 1.328125 3.1875q0 1.125 -0.46875 1.96875q-0.46875 0.84375 -1.265625 1.421875q-0.78125 0.5625 -1.796875 0.84375q-1.0 0.28125 -2.09375 0.28125zm13.166229 -0.125q-1.453125 0 -2.625 -0.71875q-1.15625 -0.734375 -1.828125 -1.984375q-0.671875 -1.25 -0.671875 -2.828125q0 -1.59375 0.734375 -2.84375q0.734375 -1.265625 1.984375 -1.984375q1.25 -0.734375 2.8125 -0.734375q1.546875 0 2.78125 0.734375q1.25 0.71875 1.984375 1.984375q0.734375 1.25 0.734375 2.84375l-0.78125 0q0 1.578125 -0.671875 2.828125q-0.671875 1.25 -1.84375 1.984375q-1.15625 0.71875 -2.609375 0.71875zm0.40625 -1.796875q1.015625 0 1.8125 -0.484375q0.796875 -0.5 1.25 -1.34375q0.46875 -0.859375 0.46875 -1.90625q0 -1.09375 -0.46875 -1.9375q-0.453125 -0.84375 -1.25 -1.328125q-0.796875 -0.5 -1.8125 -0.5q-1.0 0 -1.8125 0.5q-0.8125 0.484375 -1.28125 1.328125q-0.46875 0.84375 -0.46875 1.9375q0 1.046875 0.46875 1.90625q0.46875 0.84375 1.28125 1.34375q0.8125 0.484375 1.8125 0.484375zm4.46875 1.734375q-0.4375 0 -0.734375 -0.28125q-0.28125 -0.296875 -0.28125 -0.734375l0 -3.0625l0.375 -2.125l1.671875 0.734375l0 4.453125q0 0.4375 -0.296875 0.734375q-0.28125 0.28125 -0.734375 0.28125zm18.421875 0q-0.4375 0 -0.734375 -0.28125q-0.28125 -0.296875 -0.28125 -0.734375l0 -5.71875q0 -1.265625 -0.625 -1.875q-0.609375 -0.609375 -1.609375 -0.609375q-1.046875 0 -1.71875 0.71875q-0.671875 0.71875 -0.671875 1.84375l-1.65625 0q0 -1.296875 0.5625 -2.28125q0.5625 -1.0 1.5625 -1.5625q1.015625 -0.5625 2.3125 -0.5625q1.140625 0 2.015625 0.5q0.890625 0.5 1.375 1.484375q0.5 0.96875 0.5 2.34375l0 5.71875q0 0.4375 -0.28125 0.734375q-0.28125 0.28125 -0.75 0.28125zm-13.34375 0q-0.4375 0 -0.734375 -0.28125q-0.28125 -0.296875 -0.28125 -0.734375l0 -8.90625q0 -0.453125 0.28125 -0.734375q0.296875 -0.28125 0.734375 -0.28125q0.46875 0 0.75 0.28125q0.28125 0.28125 0.28125 0.734375l0 8.90625q0 0.4375 -0.28125 0.734375q-0.28125 0.28125 -0.75 0.28125zm6.6875 0q-0.4375 0 -0.734375 -0.28125q-0.28125 -0.296875 -0.28125 -0.734375l0 -5.71875q0 -1.265625 -0.625 -1.875q-0.625 -0.609375 -1.625 -0.609375q-1.03125 0 -1.71875 0.71875q-0.671875 0.71875 -0.671875 1.84375l-1.265625 0q0 -1.296875 0.515625 -2.28125q0.53125 -1.0 1.4375 -1.5625q0.921875 -0.5625 2.109375 -0.5625q1.140625 0 2.015625 0.5q0.890625 0.5 1.375 1.484375q0.484375 0.96875 0.484375 2.34375l0 5.71875q0 0.4375 -0.28125 0.734375q-0.28125 0.28125 -0.734375 0.28125zm12.072479 4.671875q-0.4375 0 -0.734375 -0.296875q-0.28125 -0.296875 -0.28125 -0.734375l0 -9.109375q0.015625 -1.59375 0.734375 -2.84375q0.734375 -1.265625 1.96875 -1.984375q1.234375 -0.734375 2.796875 -0.734375q1.578125 0 2.8125 0.734375q1.25 0.71875 1.96875 1.984375q0.734375 1.25 0.734375 2.84375q0 1.578125 -0.671875 2.828125q-0.65625 1.25 -1.828125 1.984375q-1.15625 0.71875 -2.609375 0.71875q-1.1875 0 -2.171875 -0.484375q-0.984375 -0.5 -1.6875 -1.328125l0 5.390625q0 0.4375 -0.28125 0.734375q-0.28125 0.296875 -0.75 0.296875zm4.484375 -6.40625q1.015625 0 1.8125 -0.484375q0.8125 -0.5 1.28125 -1.34375q0.46875 -0.859375 0.46875 -1.90625q0 -1.09375 -0.46875 -1.9375q-0.46875 -0.84375 -1.28125 -1.328125q-0.796875 -0.5 -1.8125 -0.5q-1.0 0 -1.8125 0.5q-0.796875 0.484375 -1.265625 1.328125q-0.453125 0.84375 -0.453125 1.9375q0 1.046875 0.453125 1.90625q0.46875 0.84375 1.265625 1.34375q0.8125 0.484375 1.8125 0.484375zm11.169373 1.71875q-0.890625 0 -1.578125 -0.46875q-0.671875 -0.484375 -1.046875 -1.3125q-0.375 -0.84375 -0.375 -1.921875l0 -10.921875q0 -0.4375 0.265625 -0.71875q0.28125 -0.28125 0.734375 -0.28125q0.4375 0 0.71875 0.28125q0.28125 0.28125 0.28125 0.71875l0 10.921875q0 0.75 0.265625 1.234375q0.28125 0.46875 0.734375 0.46875l0.5 0q0.390625 0 0.640625 0.28125q0.25 0.28125 0.25 0.71875q0 0.4375 -0.375 0.71875q-0.375 0.28125 -0.984375 0.28125l-0.03125 0zm7.9312134 0.078125q-1.65625 0 -2.953125 -0.703125q-1.28125 -0.71875 -2.015625 -1.96875q-0.734375 -1.25 -0.734375 -2.859375q0 -1.640625 0.6875 -2.890625q0.703125 -1.25 1.921875 -1.953125q1.21875 -0.71875 2.796875 -0.71875q1.5625 0 2.671875 0.6875q1.125 0.6875 1.71875 1.90625q0.59375 1.203125 0.59375 2.78125q0 0.375 -0.265625 0.625q-0.265625 0.25 -0.65625 0.25l-8.0625 0l0 -1.59375l8.0 0l-0.828125 0.5625q-0.015625 -1.0 -0.390625 -1.78125q-0.375 -0.796875 -1.078125 -1.25q-0.703125 -0.46875 -1.703125 -0.46875q-1.140625 0 -1.953125 0.5q-0.8125 0.5 -1.234375 1.375q-0.40625 0.859375 -0.40625 1.96875q0 1.09375 0.5 1.953125q0.5 0.859375 1.375 1.359375q0.875 0.5 2.015625 0.5q0.625 0 1.265625 -0.21875q0.65625 -0.234375 1.0625 -0.546875q0.296875 -0.21875 0.640625 -0.21875q0.359375 -0.015625 0.609375 0.203125q0.34375 0.296875 0.359375 0.65625q0.03125 0.359375 -0.3125 0.625q-0.6875 0.546875 -1.703125 0.890625q-1.0 0.328125 -1.921875 0.328125zm8.263733 -6.921875q0 -1.203125 0.578125 -2.140625q0.59375 -0.953125 1.59375 -1.515625q1.0 -0.5625 2.203125 -0.5625q1.203125 0 1.796875 0.390625q0.59375 0.390625 0.453125 0.9375q-0.0625 0.28125 -0.234375 0.4375q-0.171875 0.140625 -0.390625 0.1875q-0.21875 0.03125 -0.484375 -0.03125q-1.28125 -0.265625 -2.296875 -0.03125q-1.015625 0.21875 -1.609375 0.8125q-0.59375 0.59375 -0.59375 1.515625l-1.015625 0zm0.015625 6.84375q-0.484375 0 -0.75 -0.25q-0.25 -0.25 -0.25 -0.75l0 -8.9375q0 -0.484375 0.25 -0.734375q0.265625 -0.265625 0.75 -0.265625q0.5 0 0.75 0.25q0.25 0.25 0.25 0.75l0 8.9375q0 0.484375 -0.25 0.75q-0.25 0.25 -0.75 0.25z" fill-rule="nonzero"/><path fill="#000000" fill-opacity="0.0" d="m423.57217 572.0184l379.2441 0l0 59.77954l-379.2441 0z" fill-rule="evenodd"/><path stroke="#000000" stroke-width="3.0" stroke-linejoin="round" stroke-linecap="butt" d="m423.57217 572.0184l379.2441 0l0 59.77954l-379.2441 0z" fill-rule="evenodd"/><path fill="#000000" d="m497.07602 613.0184q-0.734375 0 -1.234375 -0.5q-0.5 -0.5 -0.5 -1.234375l0 -22.5625q0 -0.765625 0.5 -1.25q0.5 -0.484375 1.234375 -0.484375q1.0 0 1.53125 0.9375l10.4375 20.890625l-1.0625 0l10.1562195 -20.890625q0.53125 -0.9375 1.53125 -0.9375q0.734375 0 1.234375 0.484375q0.5 0.484375 0.5 1.25l0 22.5625q0 0.734375 -0.515625 1.234375q-0.515625 0.5 -1.21875 0.5q-0.734375 0 -1.234375 -0.5q-0.5 -0.5 -0.5 -1.234375l0 -17.765625l0.671875 -0.15625l-8.7343445 17.796875q-0.5625 0.859375 -1.5 0.859375q-1.09375 0 -1.59375 -1.03125l-8.640625 -17.296875l0.671875 -0.171875l0 17.765625q0 0.734375 -0.5 1.234375q-0.5 0.5 -1.234375 0.5zm32.69687 0q-0.734375 0 -1.21875 -0.484375q-0.484375 -0.484375 -0.484375 -1.21875l0 -14.828125q0 -0.765625 0.484375 -1.234375q0.484375 -0.46875 1.21875 -0.46875q0.765625 0 1.234375 0.46875q0.46875 0.46875 0.46875 1.234375l0 14.828125q0 0.734375 -0.46875 1.21875q-0.46875 0.484375 -1.234375 0.484375zm0 -21.203125q-0.890625 0 -1.546875 -0.640625q-0.640625 -0.65625 -0.640625 -1.546875q0 -0.90625 0.640625 -1.546875q0.65625 -0.65625 1.546875 -0.65625q0.90625 0 1.546875 0.65625q0.65625 0.640625 0.65625 1.546875q0 0.890625 -0.65625 1.546875q-0.640625 0.640625 -1.546875 0.640625zm20.83075 21.203125q-0.328125 0 -0.640625 -0.09375q-0.296875 -0.109375 -0.5625 -0.4375l-5.828125 -7.0l-1.203125 -1.203125l-5.796875 -6.859375q-0.4375 -0.53125 -0.46875 -1.140625q-0.03125 -0.625 0.328125 -1.0625q0.375 -0.4375 1.109375 -0.4375q0.796875 0 1.265625 0.578125l5.703125 6.796875l0.859375 0.796875l6.265625 7.5q0.5 0.59375 0.484375 1.1875q-0.015625 0.578125 -0.4375 0.984375q-0.40625 0.390625 -1.078125 0.390625zm-12.734375 0q-0.65625 0 -1.046875 -0.40625q-0.375 -0.421875 -0.375 -1.015625q0 -0.609375 0.453125 -1.21875l5.671875 -7.09375l1.796875 2.53125l-5.296875 6.671875q-0.5 0.53125 -1.203125 0.53125zm8.234375 -8.5625l-2.296875 -1.96875l5.359375 -7.125q0.265625 -0.34375 0.5625 -0.453125q0.3125 -0.125 0.671875 -0.125q0.734375 0 1.09375 0.453125q0.375 0.453125 0.359375 1.09375q-0.015625 0.625 -0.484375 1.21875l-5.265625 6.90625zm16.891846 8.5625q-1.65625 0 -3.0 -0.84375q-1.328125 -0.859375 -2.09375 -2.3125q-0.765625 -1.46875 -0.765625 -3.3125l0 -15.890625q0 -0.734375 0.46875 -1.203125q0.46875 -0.46875 1.203125 -0.46875q0.734375 0 1.1875 0.46875q0.46875 0.46875 0.46875 1.203125l0 15.890625q0 1.34375 0.734375 2.25q0.734375 0.890625 1.796875 0.890625l1.140625 0q0.59375 0 1.015625 0.46875q0.421875 0.453125 0.421875 1.1875q0 0.734375 -0.5625 1.203125q-0.546875 0.46875 -1.40625 0.46875l-0.609375 0zm-7.390625 -14.703125q-0.703125 0 -1.140625 -0.390625q-0.421875 -0.40625 -0.421875 -1.0q0 -0.671875 0.421875 -1.0625q0.4375 -0.40625 1.140625 -0.40625l7.703125 0q0.6875 0 1.125 0.40625q0.4375 0.390625 0.4375 1.0625q0 0.59375 -0.4375 1.0q-0.4375 0.390625 -1.125 0.390625l-7.703125 0zm21.802063 14.875q-2.3125 0 -4.125 -0.984375q-1.8125 -0.984375 -2.859375 -2.875q-1.046875 -1.90625 -1.046875 -4.671875l0 -8.203125q0 -0.734375 0.46875 -1.21875q0.484375 -0.484375 1.21875 -0.484375q0.734375 0 1.21875 0.484375q0.484375 0.484375 0.484375 1.21875l0 8.203125q0 1.859375 0.703125 3.078125q0.703125 1.21875 1.890625 1.796875q1.203125 0.578125 2.703125 0.578125q1.4375 0 2.546875 -0.5625q1.125 -0.5625 1.78125 -1.53125q0.671875 -0.96875 0.671875 -2.171875l2.109375 0q0 2.078125 -1.03125 3.75q-1.015625 1.65625 -2.765625 2.625q-1.75 0.96875 -3.96875 0.96875zm7.359375 -0.171875q-0.734375 0 -1.21875 -0.484375q-0.484375 -0.484375 -0.484375 -1.21875l0 -14.859375q0 -0.765625 0.484375 -1.234375q0.484375 -0.46875 1.21875 -0.46875q0.765625 0 1.234375 0.46875q0.46875 0.46875 0.46875 1.234375l0 14.859375q0 0.734375 -0.46875 1.21875q-0.46875 0.484375 -1.234375 0.484375zm9.323486 -11.390625q0 -2.0 0.984375 -3.578125q0.984375 -1.59375 2.65625 -2.53125q1.671875 -0.9375 3.671875 -0.9375q2.0 0 2.96875 0.65625q0.984375 0.65625 0.765625 1.546875q-0.109375 0.46875 -0.390625 0.71875q-0.28125 0.25 -0.65625 0.328125q-0.359375 0.0625 -0.796875 -0.046875q-2.125 -0.4375 -3.828125 -0.0625q-1.703125 0.359375 -2.6875 1.359375q-0.984375 1.0 -0.984375 2.546875l-1.703125 0zm0.046875 11.390625q-0.8125 0 -1.25 -0.40625q-0.421875 -0.421875 -0.421875 -1.265625l0 -14.890625q0 -0.796875 0.421875 -1.234375q0.4375 -0.4375 1.25 -0.4375q0.828125 0 1.234375 0.421875q0.421875 0.421875 0.421875 1.25l0 14.890625q0 0.8125 -0.421875 1.25q-0.40625 0.421875 -1.234375 0.421875zm21.7547 0.140625q-2.765625 0 -4.921875 -1.1875q-2.140625 -1.1875 -3.359375 -3.265625q-1.21875 -2.09375 -1.21875 -4.78125q0 -2.734375 1.140625 -4.8125q1.15625 -2.09375 3.1875 -3.265625q2.046875 -1.1875 4.671875 -1.1875q2.609375 0 4.46875 1.15625q1.859375 1.140625 2.84375 3.15625q0.984375 2.015625 0.984375 4.640625q0 0.640625 -0.4375 1.0625q-0.421875 0.40625 -1.09375 0.40625l-13.421875 0l0 -2.65625l13.328125 0l-1.375 0.921875q-0.03125 -1.65625 -0.671875 -2.96875q-0.625 -1.328125 -1.796875 -2.09375q-1.15625 -0.765625 -2.828125 -0.765625q-1.890625 0 -3.25 0.84375q-1.34375 0.828125 -2.046875 2.28125q-0.703125 1.4375 -0.703125 3.28125q0 1.828125 0.828125 3.265625q0.84375 1.421875 2.3125 2.265625q1.46875 0.828125 3.359375 0.828125q1.03125 0 2.109375 -0.375q1.09375 -0.390625 1.765625 -0.890625q0.5 -0.359375 1.078125 -0.375q0.578125 -0.03125 1.015625 0.34375q0.5625 0.5 0.59375 1.109375q0.03125 0.59375 -0.53125 1.015625q-1.125 0.90625 -2.8125 1.484375q-1.6875 0.5625 -3.21875 0.5625zm14.196716 -0.140625q-0.734375 0 -1.234375 -0.5q-0.5 -0.5 -0.5 -1.234375l0 -22.5625q0 -0.765625 0.5 -1.25q0.5 -0.484375 1.234375 -0.484375q1.0 0 1.53125 0.9375l10.4375 20.890625l-1.0625 0l10.15625 -20.890625q0.53125 -0.9375 1.53125 -0.9375q0.734375 0 1.234375 0.484375q0.5 0.484375 0.5 1.25l0 22.5625q0 0.734375 -0.515625 1.234375q-0.515625 0.5 -1.21875 0.5q-0.734375 0 -1.234375 -0.5q-0.5 -0.5 -0.5 -1.234375l0 -17.765625l0.671875 -0.15625l-8.734375 17.796875q-0.5625 0.859375 -1.5 0.859375q-1.09375 0 -1.59375 -1.03125l-8.640625 -17.296875l0.671875 -0.171875l0 17.765625q0 0.734375 -0.5 1.234375q-0.5 0.5 -1.234375 0.5zm38.931274 0.140625q-2.703125 0 -4.765625 -1.1875q-2.0625 -1.1875 -3.25 -3.265625q-1.1875 -2.09375 -1.1875 -4.78125q0 -2.734375 1.1875 -4.8125q1.1875 -2.09375 3.25 -3.265625q2.0625 -1.1875 4.765625 -1.1875q2.671875 0 4.734375 1.1875q2.0625 1.171875 3.25 3.265625q1.1875 2.078125 1.1875 4.8125q0 2.6875 -1.171875 4.78125q-1.171875 2.078125 -3.234375 3.265625q-2.0625 1.1875 -4.765625 1.1875zm0 -3.0q1.734375 0 3.0625 -0.796875q1.34375 -0.8125 2.078125 -2.203125q0.75 -1.40625 0.75 -3.234375q0 -1.84375 -0.75 -3.25q-0.734375 -1.421875 -2.078125 -2.21875q-1.328125 -0.796875 -3.0625 -0.796875q-1.734375 0 -3.078125 0.796875q-1.328125 0.796875 -2.09375 2.21875q-0.765625 1.40625 -0.765625 3.25q0 1.828125 0.765625 3.234375q0.765625 1.390625 2.09375 2.203125q1.34375 0.796875 3.078125 0.796875zm22.49646 3.0q-2.59375 0 -4.6875 -1.21875q-2.078125 -1.21875 -3.296875 -3.3125q-1.21875 -2.109375 -1.21875 -4.734375q0 -2.640625 1.109375 -4.71875q1.125 -2.09375 3.0625 -3.296875q1.9375 -1.21875 4.359375 -1.21875q1.96875 0 3.625 0.8125q1.671875 0.8125 2.8125 2.21875l0 -9.0q0 -0.765625 0.484375 -1.234375q0.484375 -0.46875 1.21875 -0.46875q0.765625 0 1.234375 0.46875q0.46875 0.46875 0.46875 1.234375l0 15.203125q0 2.625 -1.21875 4.734375q-1.21875 2.09375 -3.296875 3.3125q-2.0625 1.21875 -4.65625 1.21875zm0 -3.0q1.703125 0 3.03125 -0.8125q1.328125 -0.828125 2.09375 -2.25q0.765625 -1.4375 0.765625 -3.203125q0 -1.8125 -0.765625 -3.203125q-0.765625 -1.40625 -2.09375 -2.21875q-1.328125 -0.8125 -3.03125 -0.8125q-1.671875 0 -3.015625 0.8125q-1.34375 0.8125 -2.140625 2.21875q-0.78125 1.390625 -0.78125 3.203125q0 1.765625 0.78125 3.203125q0.796875 1.421875 2.140625 2.25q1.34375 0.8125 3.015625 0.8125zm23.726501 3.0q-2.765625 0 -4.921875 -1.1875q-2.140625 -1.1875 -3.359375 -3.265625q-1.21875 -2.09375 -1.21875 -4.78125q0 -2.734375 1.140625 -4.8125q1.15625 -2.09375 3.1875 -3.265625q2.046875 -1.1875 4.671875 -1.1875q2.609375 0 4.46875 1.15625q1.859375 1.140625 2.84375 3.15625q0.984375 2.015625 0.984375 4.640625q0 0.640625 -0.4375 1.0625q-0.421875 0.40625 -1.09375 0.40625l-13.421875 0l0 -2.65625l13.328125 0l-1.375 0.921875q-0.03125 -1.65625 -0.671875 -2.96875q-0.625 -1.328125 -1.796875 -2.09375q-1.15625 -0.765625 -2.828125 -0.765625q-1.890625 0 -3.25 0.84375q-1.34375 0.828125 -2.046875 2.28125q-0.703125 1.4375 -0.703125 3.28125q0 1.828125 0.828125 3.265625q0.84375 1.421875 2.3125 2.265625q1.46875 0.828125 3.359375 0.828125q1.03125 0 2.109375 -0.375q1.09375 -0.390625 1.765625 -0.890625q0.5 -0.359375 1.078125 -0.375q0.578125 -0.03125 1.015625 0.34375q0.5625 0.5 0.59375 1.109375q0.03125 0.59375 -0.53125 1.015625q-1.125 0.90625 -2.8125 1.484375q-1.6875 0.5625 -3.21875 0.5625zm16.462341 -0.140625q-1.46875 0 -2.609375 -0.796875q-1.125 -0.796875 -1.765625 -2.171875q-0.625 -1.390625 -0.625 -3.203125l0 -18.1875q0 -0.734375 0.46875 -1.203125q0.46875 -0.46875 1.203125 -0.46875q0.734375 0 1.203125 0.46875q0.46875 0.46875 0.46875 1.203125l0 18.1875q0 1.234375 0.453125 2.046875q0.46875 0.796875 1.203125 0.796875l0.84375 0q0.65625 0 1.078125 0.46875q0.421875 0.453125 0.421875 1.1875q0 0.734375 -0.640625 1.203125q-0.625 0.46875 -1.625 0.46875l-0.078125 0z" fill-rule="nonzero"/><path fill="#000000" fill-opacity="0.0" d="m423.1076 801.9554l380.12598 0l0 59.77954l-380.12598 0z" fill-rule="evenodd"/><path fill="#000000" d="m552.62885 843.12726q-2.625 0 -4.734375 -1.21875q-2.09375 -1.21875 -3.3125 -3.3125q-1.21875 -2.109375 -1.21875 -4.765625q0 -2.640625 1.1875 -4.734375q1.1875 -2.109375 3.21875 -3.3125q2.03125 -1.21875 4.59375 -1.21875q2.234375 0 4.03125 0.953125q1.796875 0.9375 2.90625 2.5l0 -9.796875q0 -0.59375 0.359375 -0.9375q0.375 -0.359375 0.9375 -0.359375q0.5625 0 0.921875 0.359375q0.375 0.34375 0.375 0.9375l0 15.734375q-0.0625 2.59375 -1.28125 4.6875q-1.21875 2.078125 -3.3125 3.28125q-2.078125 1.203125 -4.671875 1.203125zm0 -2.34375q1.9375 0 3.453125 -0.90625q1.515625 -0.921875 2.390625 -2.484375q0.890625 -1.5625 0.890625 -3.5625q0 -1.96875 -0.890625 -3.546875q-0.875 -1.59375 -2.390625 -2.484375q-1.515625 -0.90625 -3.453125 -0.90625q-1.890625 0 -3.4375 0.90625q-1.53125 0.890625 -2.4375 2.484375q-0.890625 1.578125 -0.890625 3.546875q0 2.0 0.890625 3.5625q0.90625 1.5625 2.4375 2.484375q1.546875 0.90625 3.4375 0.90625zm23.297302 2.34375q-2.5625 0 -4.59375 -1.21875q-2.03125 -1.21875 -3.21875 -3.3125q-1.1875 -2.109375 -1.1875 -4.734375q0 -2.671875 1.21875 -4.765625q1.21875 -2.109375 3.3125 -3.3125q2.109375 -1.21875 4.734375 -1.21875q2.640625 0 4.71875 1.21875q2.078125 1.203125 3.296875 3.3125q1.21875 2.09375 1.25 4.765625l-1.03125 0.796875q0 2.390625 -1.125 4.3125q-1.109375 1.921875 -3.03125 3.046875q-1.90625 1.109375 -4.34375 1.109375zm0.265625 -2.34375q1.9375 0 3.453125 -0.890625q1.515625 -0.90625 2.390625 -2.484375q0.890625 -1.578125 0.890625 -3.546875q0 -2.0 -0.890625 -3.5625q-0.875 -1.578125 -2.390625 -2.484375q-1.515625 -0.921875 -3.453125 -0.921875q-1.890625 0 -3.4375 0.921875q-1.53125 0.90625 -2.4375 2.484375q-0.890625 1.5625 -0.890625 3.5625q0 1.96875 0.890625 3.546875q0.90625 1.578125 2.4375 2.484375q1.546875 0.890625 3.4375 0.890625zm7.96875 2.171875q-0.5625 0 -0.9375 -0.34375q-0.359375 -0.359375 -0.359375 -0.921875l0 -5.703125l0.625 -2.625l1.96875 0.5l0 7.828125q0 0.5625 -0.375 0.921875q-0.359375 0.34375 -0.921875 0.34375zm13.422485 0q-1.765625 0 -3.15625 -0.828125q-1.375 -0.84375 -2.171875 -2.28125q-0.796875 -1.453125 -0.796875 -3.328125l0 -16.296875q0 -0.5625 0.34375 -0.921875q0.359375 -0.375 0.921875 -0.375q0.5625 0 0.921875 0.375q0.375 0.359375 0.375 0.921875l0 16.296875q0 1.703125 1.0 2.796875q1.0 1.078125 2.5625 1.078125l0.90625 0q0.53125 0 0.859375 0.375q0.34375 0.359375 0.34375 0.921875q0 0.5625 -0.40625 0.921875q-0.390625 0.34375 -1.0 0.34375l-0.703125 0zm-8.296875 -15.328125q-0.5 0 -0.828125 -0.3125q-0.328125 -0.328125 -0.328125 -0.796875q0 -0.5 0.328125 -0.8125q0.328125 -0.3125 0.828125 -0.3125l8.5 0q0.5 0 0.828125 0.3125q0.34375 0.3125 0.34375 0.8125q0 0.46875 -0.34375 0.796875q-0.328125 0.3125 -0.828125 0.3125l-8.5 0zm22.601013 15.5q-2.5625 0 -4.59375 -1.21875q-2.03125 -1.21875 -3.21875 -3.3125q-1.1875 -2.109375 -1.1875 -4.734375q0 -2.671875 1.21875 -4.765625q1.21875 -2.109375 3.3125 -3.3125q2.109375 -1.21875 4.734375 -1.21875q2.640625 0 4.71875 1.21875q2.078125 1.203125 3.296875 3.3125q1.21875 2.09375 1.25 4.765625l-1.03125 0.796875q0 2.390625 -1.125 4.3125q-1.109375 1.921875 -3.03125 3.046875q-1.90625 1.109375 -4.34375 1.109375zm0.265625 -2.34375q1.9375 0 3.453125 -0.890625q1.515625 -0.90625 2.390625 -2.484375q0.890625 -1.578125 0.890625 -3.546875q0 -2.0 -0.890625 -3.5625q-0.875 -1.578125 -2.390625 -2.484375q-1.515625 -0.921875 -3.453125 -0.921875q-1.890625 0 -3.4375 0.921875q-1.53125 0.90625 -2.4375 2.484375q-0.890625 1.5625 -0.890625 3.5625q0 1.96875 0.890625 3.546875q0.90625 1.578125 2.4375 2.484375q1.546875 0.890625 3.4375 0.890625zm7.96875 2.171875q-0.5625 0 -0.9375 -0.34375q-0.359375 -0.359375 -0.359375 -0.921875l0 -5.703125l0.625 -2.625l1.96875 0.5l0 7.828125q0 0.5625 -0.375 0.921875q-0.359375 0.34375 -0.921875 0.34375zm22.421936 0.171875q-1.953125 0 -3.890625 -0.671875q-1.9375 -0.671875 -3.140625 -2.0q-0.359375 -0.40625 -0.296875 -0.90625q0.0625 -0.5 0.5 -0.859375q0.46875 -0.328125 0.96875 -0.265625q0.5 0.0625 0.828125 0.4375q0.796875 0.921875 2.109375 1.421875q1.328125 0.5 2.921875 0.5q2.46875 0 3.5625 -0.84375q1.109375 -0.84375 1.140625 -2.046875q0 -1.203125 -1.140625 -1.984375q-1.125 -0.78125 -3.71875 -1.21875q-3.375 -0.53125 -4.9375 -1.859375q-1.5625 -1.34375 -1.5625 -3.171875q0 -1.703125 0.890625 -2.828125q0.90625 -1.140625 2.40625 -1.703125q1.5 -0.5625 3.296875 -0.5625q2.234375 0 3.84375 0.765625q1.625 0.765625 2.625 2.0625q0.328125 0.4375 0.265625 0.90625q-0.0625 0.453125 -0.53125 0.765625q-0.40625 0.21875 -0.921875 0.140625q-0.515625 -0.078125 -0.875 -0.484375q-0.84375 -0.96875 -1.9375 -1.40625q-1.09375 -0.453125 -2.53125 -0.453125q-1.828125 0 -2.9375 0.75q-1.09375 0.75 -1.09375 1.875q0 0.765625 0.40625 1.34375q0.421875 0.5625 1.4375 1.0q1.015625 0.421875 2.84375 0.734375q2.5 0.390625 3.953125 1.171875q1.453125 0.78125 2.0625 1.84375q0.625 1.046875 0.625 2.28125q0 1.5625 -0.921875 2.75q-0.90625 1.171875 -2.53125 1.84375q-1.609375 0.671875 -3.71875 0.671875zm19.870117 0q-2.703125 0 -4.78125 -1.1875q-2.078125 -1.1875 -3.265625 -3.28125q-1.1875 -2.109375 -1.1875 -4.796875q0 -2.734375 1.109375 -4.8125q1.125 -2.09375 3.09375 -3.28125q1.96875 -1.203125 4.53125 -1.203125q2.53125 0 4.40625 1.15625q1.890625 1.140625 2.921875 3.171875q1.03125 2.03125 1.03125 4.625q0 0.53125 -0.328125 0.859375q-0.328125 0.3125 -0.859375 0.3125l-14.171875 0l0 -2.125l14.4375 0l-1.4375 1.03125q0.03125 -1.9375 -0.703125 -3.46875q-0.734375 -1.53125 -2.09375 -2.390625q-1.34375 -0.875 -3.203125 -0.875q-1.90625 0 -3.34375 0.90625q-1.421875 0.890625 -2.203125 2.484375q-0.78125 1.578125 -0.78125 3.609375q0 2.03125 0.875 3.59375q0.890625 1.5625 2.421875 2.46875q1.53125 0.890625 3.53125 0.890625q1.203125 0 2.40625 -0.40625q1.21875 -0.421875 1.953125 -1.046875q0.375 -0.3125 0.84375 -0.328125q0.46875 -0.015625 0.796875 0.25q0.4375 0.40625 0.453125 0.875q0.015625 0.46875 -0.390625 0.796875q-1.09375 0.9375 -2.796875 1.5625q-1.703125 0.609375 -3.265625 0.609375zm19.322754 -0.171875q-1.765625 0 -3.15625 -0.828125q-1.375 -0.84375 -2.171875 -2.28125q-0.796875 -1.453125 -0.796875 -3.328125l0 -16.296875q0 -0.5625 0.34375 -0.921875q0.359375 -0.375 0.921875 -0.375q0.5625 0 0.921875 0.375q0.375 0.359375 0.375 0.921875l0 16.296875q0 1.703125 1.0 2.796875q1.0 1.078125 2.5625 1.078125l0.90625 0q0.53125 0 0.859375 0.375q0.34375 0.359375 0.34375 0.921875q0 0.5625 -0.40625 0.921875q-0.390625 0.34375 -1.0 0.34375l-0.703125 0zm-8.296875 -15.328125q-0.5 0 -0.828125 -0.3125q-0.328125 -0.328125 -0.328125 -0.796875q0 -0.5 0.328125 -0.8125q0.328125 -0.3125 0.828125 -0.3125l8.5 0q0.5 0 0.828125 0.3125q0.34375 0.3125 0.34375 0.8125q0 0.46875 -0.34375 0.796875q-0.328125 0.3125 -0.828125 0.3125l-8.5 0z" fill-rule="nonzero"/><path fill="#000000" fill-opacity="0.0" d="m613.89514 318.82993l-0.50390625 235.59055" fill-rule="evenodd"/><path stroke="#000000" stroke-width="4.0" stroke-linejoin="round" stroke-linecap="butt" stroke-dasharray="32.0,12.0" d="m613.8952 318.8299l-0.45263672 211.59064" fill-rule="evenodd"/><path fill="#000000" stroke="#000000" stroke-width="4.0" stroke-linecap="butt" d="m606.83563 530.40643l6.568115 18.166443l6.645752 -18.138184z" fill-rule="evenodd"/><path fill="#000000" fill-opacity="0.0" d="m133.82793 307.01163l0.44093323 91.62207" fill-rule="evenodd"/><path stroke="#000000" stroke-width="4.0" stroke-linejoin="round" stroke-linecap="butt" d="m133.94342 331.01135l0.32543945 67.622345" fill-rule="evenodd"/><path fill="#000000" stroke="#000000" stroke-width="4.0" stroke-linecap="butt" d="m140.55028 330.97958l-6.694214 -18.120392l-6.519493 18.18396z" fill-rule="evenodd"/><path fill="#000000" fill-opacity="0.0" d="m423.57123 307.01022l0.4409485 91.62204" fill-rule="evenodd"/><path stroke="#000000" stroke-width="4.0" stroke-linejoin="round" stroke-linecap="butt" d="m423.6867 331.00995l0.32546997 67.622314" fill-rule="evenodd"/><path fill="#000000" stroke="#000000" stroke-width="4.0" stroke-linecap="butt" d="m430.29358 330.97815l-6.694214 -18.120361l-6.51947 18.18396z" fill-rule="evenodd"/><path fill="#000000" fill-opacity="0.0" d="m803.2737 307.01163l0.440979 91.62207" fill-rule="evenodd"/><path stroke="#000000" stroke-width="4.0" stroke-linejoin="round" stroke-linecap="butt" d="m803.38916 331.01135l0.3255005 67.622345" fill-rule="evenodd"/><path fill="#000000" stroke="#000000" stroke-width="4.0" stroke-linecap="butt" d="m809.99603 330.97958l-6.694214 -18.120392l-6.51947 18.18396z" fill-rule="evenodd"/><path fill="#000000" fill-opacity="0.0" d="m1093.0197 307.01022l0.44091797 91.62204" fill-rule="evenodd"/><path stroke="#000000" stroke-width="4.0" stroke-linejoin="round" stroke-linecap="butt" d="m1093.1351 331.00995l0.32543945 67.622314" fill-rule="evenodd"/><path fill="#000000" stroke="#000000" stroke-width="4.0" stroke-linecap="butt" d="m1099.742 330.97815l-6.694214 -18.120361l-6.5195312 18.18396z" fill-rule="evenodd"/><path fill="#000000" fill-opacity="0.0" d="m614.7289 648.9919l-0.9133911 142.04724" fill-rule="evenodd"/><path stroke="#000000" stroke-width="4.0" stroke-linejoin="round" stroke-linecap="butt" stroke-dasharray="32.0,12.0" d="m614.7289 648.9919l-0.75909424 118.04773" fill-rule="evenodd"/><path fill="#000000" stroke="#000000" stroke-width="4.0" stroke-linecap="butt" d="m607.36304 766.99713l6.4900513 18.194519l6.7235107 -18.109558z" fill-rule="evenodd"/><path fill="#000000" fill-opacity="0.0" d="m614.0666 78.41843l-0.09448242 135.33858" fill-rule="evenodd"/><path stroke="#000000" stroke-width="4.0" stroke-linejoin="round" stroke-linecap="butt" d="m614.0498 102.41842l-0.07775879 111.3386" fill-rule="evenodd"/><path fill="#000000" stroke="#000000" stroke-width="4.0" stroke-linecap="butt" d="m620.65674 102.423035l-6.5942383 -18.157005l-6.619629 18.147774z" fill-rule="evenodd"/><path fill="#000000" fill-opacity="0.0" d="m675.4304 419.03937l256.12604 0l0 43.62204l-256.12604 0z" fill-rule="evenodd"/><path stroke="#000000" stroke-width="2.0" stroke-linejoin="round" stroke-linecap="butt" d="m675.4304 419.03937l256.12604 0l0 43.62204l-256.12604 0z" fill-rule="evenodd"/><path fill="#000000" d="m714.5436 447.4425q-1.625 0 -3.03125 -0.609375q-1.40625 -0.609375 -2.46875 -1.703125q-1.046875 -1.09375 -1.640625 -2.546875q-0.578125 -1.46875 -0.578125 -3.15625q0 -1.6875 0.578125 -3.140625q0.59375 -1.453125 1.640625 -2.53125q1.0625 -1.09375 2.453125 -1.703125q1.40625 -0.625 3.046875 -0.625q1.546875 0 2.65625 0.40625q1.109375 0.390625 2.21875 1.3125q0.171875 0.109375 0.25 0.25q0.09375 0.125 0.125 0.265625q0.03125 0.125 0.03125 0.296875q0 0.375 -0.28125 0.640625q-0.265625 0.265625 -0.65625 0.28125q-0.390625 0.015625 -0.71875 -0.265625q-0.75 -0.640625 -1.546875 -0.96875q-0.78125 -0.34375 -2.078125 -0.34375q-1.1875 0 -2.234375 0.484375q-1.03125 0.46875 -1.828125 1.3125q-0.78125 0.84375 -1.21875 1.953125q-0.4375 1.109375 -0.4375 2.375q0 1.265625 0.4375 2.390625q0.4375 1.109375 1.21875 1.953125q0.796875 0.828125 1.828125 1.296875q1.046875 0.46875 2.234375 0.46875q1.015625 0 1.921875 -0.34375q0.921875 -0.359375 1.765625 -0.96875q0.359375 -0.265625 0.703125 -0.234375q0.34375 0.03125 0.578125 0.28125q0.25 0.25 0.25 0.6875q0 0.203125 -0.078125 0.390625q-0.0625 0.1875 -0.234375 0.34375q-1.0625 0.890625 -2.3125 1.328125q-1.234375 0.421875 -2.59375 0.421875zm5.21875 -2.484375l-2.0 -0.40625l0 -3.578125l-2.765625 0q-0.4375 0 -0.734375 -0.25q-0.296875 -0.265625 -0.296875 -0.671875q0 -0.390625 0.296875 -0.640625q0.296875 -0.265625 0.734375 -0.265625l3.75 0q0.453125 0 0.734375 0.296875q0.28125 0.28125 0.28125 0.734375l0 4.78125zm4.102478 -4.5625q0 -1.203125 0.578125 -2.140625q0.59375 -0.953125 1.59375 -1.515625q1.0 -0.5625 2.203125 -0.5625q1.203125 0 1.796875 0.390625q0.59375 0.390625 0.453125 0.9375q-0.0625 0.28125 -0.234375 0.4375q-0.171875 0.140625 -0.390625 0.1875q-0.21875 0.03125 -0.484375 -0.03125q-1.28125 -0.265625 -2.296875 -0.03125q-1.015625 0.21875 -1.609375 0.8125q-0.59375 0.59375 -0.59375 1.515625l-1.015625 0zm0.015625 6.84375q-0.484375 0 -0.75 -0.25q-0.25 -0.25 -0.25 -0.75l0 -8.9375q0 -0.484375 0.25 -0.734375q0.265625 -0.265625 0.75 -0.265625q0.5 0 0.75 0.25q0.25 0.25 0.25 0.75l0 8.9375q0 0.484375 -0.25 0.75q-0.25 0.25 -0.75 0.25zm12.888733 0.078125q-1.625 0 -2.875 -0.703125q-1.234375 -0.71875 -1.953125 -1.96875q-0.703125 -1.25 -0.703125 -2.859375q0 -1.640625 0.703125 -2.890625q0.71875 -1.25 1.953125 -1.953125q1.25 -0.71875 2.875 -0.71875q1.59375 0 2.828125 0.71875q1.25 0.703125 1.953125 1.953125q0.71875 1.25 0.71875 2.890625q0 1.609375 -0.703125 2.859375q-0.703125 1.25 -1.953125 1.96875q-1.234375 0.703125 -2.84375 0.703125zm0 -1.796875q1.03125 0 1.828125 -0.484375q0.8125 -0.484375 1.25 -1.3125q0.453125 -0.84375 0.453125 -1.9375q0 -1.109375 -0.453125 -1.953125q-0.4375 -0.859375 -1.25 -1.328125q-0.796875 -0.484375 -1.828125 -0.484375q-1.046875 0 -1.84375 0.484375q-0.796875 0.46875 -1.265625 1.328125q-0.453125 0.84375 -0.453125 1.953125q0 1.09375 0.453125 1.9375q0.46875 0.828125 1.265625 1.3125q0.796875 0.484375 1.84375 0.484375zm13.140564 1.8125q-1.390625 0 -2.484375 -0.578125q-1.078125 -0.59375 -1.71875 -1.734375q-0.625 -1.140625 -0.625 -2.796875l0 -4.921875q0 -0.4375 0.28125 -0.71875q0.296875 -0.296875 0.734375 -0.296875q0.453125 0 0.734375 0.296875q0.296875 0.28125 0.296875 0.71875l0 4.921875q0 1.109375 0.40625 1.84375q0.421875 0.734375 1.140625 1.09375q0.734375 0.34375 1.625 0.34375q0.859375 0 1.53125 -0.34375q0.671875 -0.34375 1.0625 -0.921875q0.40625 -0.578125 0.40625 -1.296875l1.265625 0q0 1.234375 -0.609375 2.234375q-0.609375 1.0 -1.671875 1.578125q-1.046875 0.578125 -2.375 0.578125zm4.40625 -0.09375q-0.4375 0 -0.734375 -0.28125q-0.28125 -0.296875 -0.28125 -0.734375l0 -8.921875q0 -0.46875 0.28125 -0.734375q0.296875 -0.28125 0.734375 -0.28125q0.46875 0 0.75 0.28125q0.28125 0.265625 0.28125 0.734375l0 8.921875q0 0.4375 -0.28125 0.734375q-0.28125 0.28125 -0.75 0.28125zm5.6400146 4.6875q-0.4375 0 -0.734375 -0.296875q-0.28125 -0.296875 -0.28125 -0.734375l0 -9.109375q0.015625 -1.59375 0.734375 -2.84375q0.734375 -1.265625 1.96875 -1.984375q1.234375 -0.734375 2.796875 -0.734375q1.578125 0 2.8125 0.734375q1.25 0.71875 1.96875 1.984375q0.734375 1.25 0.734375 2.84375q0 1.578125 -0.671875 2.828125q-0.65625 1.25 -1.828125 1.984375q-1.15625 0.71875 -2.609375 0.71875q-1.1875 0 -2.171875 -0.484375q-0.984375 -0.5 -1.6875 -1.328125l0 5.390625q0 0.4375 -0.28125 0.734375q-0.28125 0.296875 -0.75 0.296875zm4.484375 -6.40625q1.015625 0 1.8125 -0.484375q0.8125 -0.5 1.28125 -1.34375q0.46875 -0.859375 0.46875 -1.90625q0 -1.09375 -0.46875 -1.9375q-0.46875 -0.84375 -1.28125 -1.328125q-0.796875 -0.5 -1.8125 -0.5q-1.0 0 -1.8125 0.5q-0.796875 0.484375 -1.265625 1.328125q-0.453125 0.84375 -0.453125 1.9375q0 1.046875 0.453125 1.90625q0.46875 0.84375 1.265625 1.34375q0.8125 0.484375 1.8125 0.484375zm13.716248 1.921875q-1.265625 0 -2.4375 -0.390625q-1.15625 -0.40625 -2.015625 -1.125q-0.859375 -0.734375 -1.265625 -1.671875q-0.1875 -0.421875 0.015625 -0.78125q0.203125 -0.359375 0.703125 -0.453125q0.359375 -0.078125 0.703125 0.109375q0.359375 0.1875 0.546875 0.5625q0.234375 0.5 0.78125 0.921875q0.5625 0.421875 1.328125 0.6875q0.78125 0.25 1.640625 0.25q0.96875 0 1.78125 -0.296875q0.8125 -0.296875 1.3125 -0.859375q0.5 -0.578125 0.5 -1.421875q0 -1.046875 -0.84375 -1.890625q-0.828125 -0.84375 -2.71875 -1.046875q-2.484375 -0.234375 -3.90625 -1.453125q-1.421875 -1.21875 -1.421875 -3.03125q0 -1.3125 0.734375 -2.234375q0.75 -0.921875 2.015625 -1.390625q1.28125 -0.484375 2.828125 -0.484375q1.21875 0 2.125 0.34375q0.921875 0.328125 1.59375 0.9375q0.6875 0.59375 1.1875 1.421875q0.28125 0.4375 0.21875 0.828125q-0.046875 0.390625 -0.375 0.609375q-0.390625 0.234375 -0.828125 0.09375q-0.4375 -0.140625 -0.65625 -0.515625q-0.3125 -0.578125 -0.78125 -0.96875q-0.453125 -0.40625 -1.078125 -0.640625q-0.625 -0.234375 -1.453125 -0.234375q-1.484375 -0.015625 -2.484375 0.5625q-1.0 0.5625 -1.0 1.734375q0 0.609375 0.296875 1.15625q0.3125 0.546875 1.140625 0.953125q0.84375 0.390625 2.40625 0.5625q2.375 0.234375 3.703125 1.453125q1.328125 1.203125 1.328125 3.1875q0 1.125 -0.46875 1.96875q-0.46875 0.84375 -1.265625 1.421875q-0.78125 0.5625 -1.796875 0.84375q-1.0 0.28125 -2.09375 0.28125zm9.822449 -0.203125q-0.4375 0 -0.734375 -0.28125q-0.28125 -0.296875 -0.28125 -0.734375l0 -8.90625q0 -0.453125 0.28125 -0.734375q0.296875 -0.28125 0.734375 -0.28125q0.46875 0 0.75 0.28125q0.28125 0.28125 0.28125 0.734375l0 8.90625q0 0.4375 -0.28125 0.734375q-0.28125 0.28125 -0.75 0.28125zm0 -12.71875q-0.546875 0 -0.9375 -0.390625q-0.390625 -0.390625 -0.390625 -0.9375q0 -0.53125 0.390625 -0.921875q0.390625 -0.390625 0.9375 -0.390625q0.53125 0 0.921875 0.390625q0.390625 0.390625 0.390625 0.921875q0 0.546875 -0.390625 0.9375q-0.390625 0.390625 -0.921875 0.390625zm5.868164 12.34375l-1.359375 -1.203125l6.796875 -8.984375l1.34375 1.203125l-6.78125 8.984375zm-0.609375 0.375q-0.9375 0 -0.9375 -0.9375q0 -0.9375 0.9375 -0.9375l6.828125 0q0.9375 0 0.9375 0.9375q0 0.9375 -0.9375 0.9375l-6.828125 0zm-0.1875 -9.0625q-0.953125 0 -0.953125 -0.9375q0 -0.9375 0.953125 -0.9375l6.8125 0q0.9375 0 0.9375 0.9375q0 0.9375 -0.9375 0.9375l-6.8125 0zm15.290588 9.140625q-1.65625 0 -2.953125 -0.703125q-1.28125 -0.71875 -2.015625 -1.96875q-0.734375 -1.25 -0.734375 -2.859375q0 -1.640625 0.6875 -2.890625q0.703125 -1.25 1.921875 -1.953125q1.21875 -0.71875 2.796875 -0.71875q1.5625 0 2.671875 0.6875q1.125 0.6875 1.71875 1.90625q0.59375 1.203125 0.59375 2.78125q0 0.375 -0.265625 0.625q-0.265625 0.25 -0.65625 0.25l-8.0625 0l0 -1.59375l8.0 0l-0.828125 0.5625q-0.015625 -1.0 -0.390625 -1.78125q-0.375 -0.796875 -1.078125 -1.25q-0.703125 -0.46875 -1.703125 -0.46875q-1.140625 0 -1.953125 0.5q-0.8125 0.5 -1.234375 1.375q-0.40625 0.859375 -0.40625 1.96875q0 1.09375 0.5 1.953125q0.5 0.859375 1.375 1.359375q0.875 0.5 2.015625 0.5q0.625 0 1.265625 -0.21875q0.65625 -0.234375 1.0625 -0.546875q0.296875 -0.21875 0.640625 -0.21875q0.359375 -0.015625 0.609375 0.203125q0.34375 0.296875 0.359375 0.65625q0.03125 0.359375 -0.3125 0.625q-0.6875 0.546875 -1.703125 0.890625q-1.0 0.328125 -1.921875 0.328125zm12.435608 0.125q-1.265625 0 -2.4375 -0.390625q-1.15625 -0.40625 -2.015625 -1.125q-0.859375 -0.734375 -1.265625 -1.671875q-0.1875 -0.421875 0.015625 -0.78125q0.203125 -0.359375 0.703125 -0.453125q0.359375 -0.078125 0.703125 0.109375q0.359375 0.1875 0.546875 0.5625q0.234375 0.5 0.78125 0.921875q0.5625 0.421875 1.328125 0.6875q0.78125 0.25 1.640625 0.25q0.96875 0 1.78125 -0.296875q0.8125 -0.296875 1.3125 -0.859375q0.5 -0.578125 0.5 -1.421875q0 -1.046875 -0.84375 -1.890625q-0.828125 -0.84375 -2.71875 -1.046875q-2.484375 -0.234375 -3.90625 -1.453125q-1.421875 -1.21875 -1.421875 -3.03125q0 -1.3125 0.734375 -2.234375q0.75 -0.921875 2.015625 -1.390625q1.28125 -0.484375 2.828125 -0.484375q1.21875 0 2.125 0.34375q0.921875 0.328125 1.59375 0.9375q0.6875 0.59375 1.1875 1.421875q0.28125 0.4375 0.21875 0.828125q-0.046875 0.390625 -0.375 0.609375q-0.390625 0.234375 -0.828125 0.09375q-0.4375 -0.140625 -0.65625 -0.515625q-0.3125 -0.578125 -0.78125 -0.96875q-0.453125 -0.40625 -1.078125 -0.640625q-0.625 -0.234375 -1.453125 -0.234375q-1.484375 -0.015625 -2.484375 0.5625q-1.0 0.5625 -1.0 1.734375q0 0.609375 0.296875 1.15625q0.3125 0.546875 1.140625 0.953125q0.84375 0.390625 2.40625 0.5625q2.375 0.234375 3.703125 1.453125q1.328125 1.203125 1.328125 3.1875q0 1.125 -0.46875 1.96875q-0.46875 0.84375 -1.265625 1.421875q-0.78125 0.5625 -1.796875 0.84375q-1.0 0.28125 -2.09375 0.28125zm13.16626 -0.125q-1.453125 0 -2.625 -0.71875q-1.15625 -0.734375 -1.828125 -1.984375q-0.671875 -1.25 -0.671875 -2.828125q0 -1.59375 0.734375 -2.84375q0.734375 -1.265625 1.984375 -1.984375q1.25 -0.734375 2.8125 -0.734375q1.546875 0 2.78125 0.734375q1.25 0.71875 1.984375 1.984375q0.734375 1.25 0.734375 2.84375l-0.78125 0q0 1.578125 -0.671875 2.828125q-0.671875 1.25 -1.84375 1.984375q-1.15625 0.71875 -2.609375 0.71875zm0.40625 -1.796875q1.015625 0 1.8125 -0.484375q0.796875 -0.5 1.25 -1.34375q0.46875 -0.859375 0.46875 -1.90625q0 -1.09375 -0.46875 -1.9375q-0.453125 -0.84375 -1.25 -1.328125q-0.796875 -0.5 -1.8125 -0.5q-1.0 0 -1.8125 0.5q-0.8125 0.484375 -1.28125 1.328125q-0.46875 0.84375 -0.46875 1.9375q0 1.046875 0.46875 1.90625q0.46875 0.84375 1.28125 1.34375q0.8125 0.484375 1.8125 0.484375zm4.46875 1.734375q-0.4375 0 -0.734375 -0.28125q-0.28125 -0.296875 -0.28125 -0.734375l0 -3.0625l0.375 -2.125l1.671875 0.734375l0 4.453125q0 0.4375 -0.296875 0.734375q-0.28125 0.28125 -0.734375 0.28125zm18.421814 0q-0.4375 0 -0.734375 -0.28125q-0.28125 -0.296875 -0.28125 -0.734375l0 -5.71875q0 -1.265625 -0.625 -1.875q-0.609375 -0.609375 -1.609375 -0.609375q-1.046875 0 -1.71875 0.71875q-0.671875 0.71875 -0.671875 1.84375l-1.65625 0q0 -1.296875 0.5625 -2.28125q0.5625 -1.0 1.5625 -1.5625q1.015625 -0.5625 2.3125 -0.5625q1.140625 0 2.015625 0.5q0.890625 0.5 1.375 1.484375q0.5 0.96875 0.5 2.34375l0 5.71875q0 0.4375 -0.28125 0.734375q-0.28125 0.28125 -0.75 0.28125zm-13.34375 0q-0.4375 0 -0.734375 -0.28125q-0.28125 -0.296875 -0.28125 -0.734375l0 -8.90625q0 -0.453125 0.28125 -0.734375q0.296875 -0.28125 0.734375 -0.28125q0.46875 0 0.75 0.28125q0.28125 0.28125 0.28125 0.734375l0 8.90625q0 0.4375 -0.28125 0.734375q-0.28125 0.28125 -0.75 0.28125zm6.6875 0q-0.4375 0 -0.734375 -0.28125q-0.28125 -0.296875 -0.28125 -0.734375l0 -5.71875q0 -1.265625 -0.625 -1.875q-0.625 -0.609375 -1.625 -0.609375q-1.03125 0 -1.71875 0.71875q-0.671875 0.71875 -0.671875 1.84375l-1.265625 0q0 -1.296875 0.515625 -2.28125q0.53125 -1.0 1.4375 -1.5625q0.921875 -0.5625 2.109375 -0.5625q1.140625 0 2.015625 0.5q0.890625 0.5 1.375 1.484375q0.484375 0.96875 0.484375 2.34375l0 5.71875q0 0.4375 -0.28125 0.734375q-0.28125 0.28125 -0.734375 0.28125zm12.07251 4.671875q-0.4375 0 -0.734375 -0.296875q-0.28125 -0.296875 -0.28125 -0.734375l0 -9.109375q0.015625 -1.59375 0.734375 -2.84375q0.734375 -1.265625 1.96875 -1.984375q1.234375 -0.734375 2.796875 -0.734375q1.578125 0 2.8125 0.734375q1.25 0.71875 1.96875 1.984375q0.734375 1.25 0.734375 2.84375q0 1.578125 -0.671875 2.828125q-0.65625 1.25 -1.828125 1.984375q-1.15625 0.71875 -2.609375 0.71875q-1.1875 0 -2.171875 -0.484375q-0.984375 -0.5 -1.6875 -1.328125l0 5.390625q0 0.4375 -0.28125 0.734375q-0.28125 0.296875 -0.75 0.296875zm4.484375 -6.40625q1.015625 0 1.8125 -0.484375q0.8125 -0.5 1.28125 -1.34375q0.46875 -0.859375 0.46875 -1.90625q0 -1.09375 -0.46875 -1.9375q-0.46875 -0.84375 -1.28125 -1.328125q-0.796875 -0.5 -1.8125 -0.5q-1.0 0 -1.8125 0.5q-0.796875 0.484375 -1.265625 1.328125q-0.453125 0.84375 -0.453125 1.9375q0 1.046875 0.453125 1.90625q0.46875 0.84375 1.265625 1.34375q0.8125 0.484375 1.8125 0.484375zm11.169373 1.71875q-0.890625 0 -1.578125 -0.46875q-0.671875 -0.484375 -1.046875 -1.3125q-0.375 -0.84375 -0.375 -1.921875l0 -10.921875q0 -0.4375 0.265625 -0.71875q0.28125 -0.28125 0.734375 -0.28125q0.4375 0 0.71875 0.28125q0.28125 0.28125 0.28125 0.71875l0 10.921875q0 0.75 0.265625 1.234375q0.28125 0.46875 0.734375 0.46875l0.5 0q0.390625 0 0.640625 0.28125q0.25 0.28125 0.25 0.71875q0 0.4375 -0.375 0.71875q-0.375 0.28125 -0.984375 0.28125l-0.03125 0zm7.9312134 0.078125q-1.65625 0 -2.953125 -0.703125q-1.28125 -0.71875 -2.015625 -1.96875q-0.734375 -1.25 -0.734375 -2.859375q0 -1.640625 0.6875 -2.890625q0.703125 -1.25 1.921875 -1.953125q1.21875 -0.71875 2.796875 -0.71875q1.5625 0 2.671875 0.6875q1.125 0.6875 1.71875 1.90625q0.59375 1.203125 0.59375 2.78125q0 0.375 -0.265625 0.625q-0.265625 0.25 -0.65625 0.25l-8.0625 0l0 -1.59375l8.0 0l-0.828125 0.5625q-0.015625 -1.0 -0.390625 -1.78125q-0.375 -0.796875 -1.078125 -1.25q-0.703125 -0.46875 -1.703125 -0.46875q-1.140625 0 -1.953125 0.5q-0.8125 0.5 -1.234375 1.375q-0.40625 0.859375 -0.40625 1.96875q0 1.09375 0.5 1.953125q0.5 0.859375 1.375 1.359375q0.875 0.5 2.015625 0.5q0.625 0 1.265625 -0.21875q0.65625 -0.234375 1.0625 -0.546875q0.296875 -0.21875 0.640625 -0.21875q0.359375 -0.015625 0.609375 0.203125q0.34375 0.296875 0.359375 0.65625q0.03125 0.359375 -0.3125 0.625q-0.6875 0.546875 -1.703125 0.890625q-1.0 0.328125 -1.921875 0.328125zm8.263733 -6.921875q0 -1.203125 0.578125 -2.140625q0.59375 -0.953125 1.59375 -1.515625q1.0 -0.5625 2.203125 -0.5625q1.203125 0 1.796875 0.390625q0.59375 0.390625 0.453125 0.9375q-0.0625 0.28125 -0.234375 0.4375q-0.171875 0.140625 -0.390625 0.1875q-0.21875 0.03125 -0.484375 -0.03125q-1.28125 -0.265625 -2.296875 -0.03125q-1.015625 0.21875 -1.609375 0.8125q-0.59375 0.59375 -0.59375 1.515625l-1.015625 0zm0.015625 6.84375q-0.484375 0 -0.75 -0.25q-0.25 -0.25 -0.25 -0.75l0 -8.9375q0 -0.484375 0.25 -0.734375q0.265625 -0.265625 0.75 -0.265625q0.5 0 0.75 0.25q0.25 0.25 0.25 0.75l0 8.9375q0 0.484375 -0.25 0.75q-0.25 0.25 -0.75 0.25z" fill-rule="nonzero"/><path fill="#000000" fill-opacity="0.0" d="m965.1758 419.03806l256.12598 0l0 43.62204l-256.12598 0z" fill-rule="evenodd"/><path stroke="#000000" stroke-width="2.0" stroke-linejoin="round" stroke-linecap="butt" d="m965.1758 419.03806l256.12598 0l0 43.62204l-256.12598 0z" fill-rule="evenodd"/><path fill="#000000" d="m1015.25574 447.23807q-0.453125 0 -0.75 -0.296875q-0.296875 -0.296875 -0.296875 -0.75l0 -13.53125q0 -0.46875 0.296875 -0.75q0.296875 -0.296875 0.75 -0.296875l3.609375 0q1.71875 0 3.125 0.578125q1.421875 0.5625 2.453125 1.625q1.046875 1.046875 1.609375 2.46875q0.5625 1.40625 0.5625 3.140625q0 1.71875 -0.5625 3.15625q-0.5625 1.421875 -1.609375 2.46875q-1.03125 1.046875 -2.453125 1.625q-1.40625 0.5625 -3.125 0.5625l-3.609375 0zm1.03125 -1.84375l2.578125 0q1.6875 0 2.96875 -0.765625q1.296875 -0.765625 2.03125 -2.109375q0.75 -1.359375 0.75 -3.09375q0 -1.765625 -0.75 -3.109375q-0.734375 -1.34375 -2.03125 -2.09375q-1.28125 -0.765625 -2.96875 -0.765625l-2.578125 0l0 11.9375zm14.597534 1.84375q-0.4375 0 -0.734375 -0.28125q-0.28125 -0.296875 -0.28125 -0.734375l0 -8.90625q0 -0.453125 0.28125 -0.734375q0.296875 -0.28125 0.734375 -0.28125q0.46875 0 0.75 0.28125q0.28125 0.28125 0.28125 0.734375l0 8.90625q0 0.4375 -0.28125 0.734375q-0.28125 0.28125 -0.75 0.28125zm0 -12.71875q-0.546875 0 -0.9375 -0.390625q-0.390625 -0.390625 -0.390625 -0.9375q0 -0.53125 0.390625 -0.921875q0.390625 -0.390625 0.9375 -0.390625q0.53125 0 0.921875 0.390625q0.390625 0.390625 0.390625 0.921875q0 0.546875 -0.390625 0.9375q-0.390625 0.390625 -0.921875 0.390625zm8.805542 12.796875q-1.40625 0 -2.59375 -0.421875q-1.1875 -0.4375 -1.84375 -1.09375q-0.296875 -0.328125 -0.25 -0.734375q0.046875 -0.40625 0.390625 -0.671875q0.390625 -0.3125 0.78125 -0.265625q0.390625 0.046875 0.671875 0.34375q0.34375 0.390625 1.09375 0.71875q0.75 0.328125 1.671875 0.328125q1.15625 0 1.765625 -0.375q0.609375 -0.390625 0.625 -0.984375q0.03125 -0.609375 -0.5625 -1.046875q-0.59375 -0.4375 -2.15625 -0.71875q-2.015625 -0.390625 -2.921875 -1.1875q-0.90625 -0.8125 -0.90625 -1.96875q0 -1.015625 0.59375 -1.6875q0.59375 -0.671875 1.53125 -1.0q0.953125 -0.328125 1.96875 -0.328125q1.3125 0 2.328125 0.421875q1.03125 0.40625 1.625 1.15625q0.28125 0.3125 0.265625 0.671875q-0.015625 0.34375 -0.34375 0.578125q-0.3125 0.234375 -0.765625 0.15625q-0.4375 -0.09375 -0.734375 -0.375q-0.5 -0.46875 -1.078125 -0.640625q-0.578125 -0.1875 -1.34375 -0.1875q-0.875 0 -1.484375 0.296875q-0.609375 0.296875 -0.609375 0.875q0 0.359375 0.1875 0.65625q0.1875 0.28125 0.75 0.515625q0.5625 0.234375 1.640625 0.453125q1.5 0.296875 2.359375 0.765625q0.875 0.453125 1.25 1.0625q0.390625 0.609375 0.390625 1.40625q0 0.921875 -0.5 1.671875q-0.484375 0.734375 -1.4375 1.171875q-0.9375 0.4375 -2.359375 0.4375zm10.859985 -0.078125q-1.0 0 -1.796875 -0.5q-0.796875 -0.515625 -1.265625 -1.390625q-0.453125 -0.890625 -0.453125 -1.984375l0 -9.546875q0 -0.4375 0.265625 -0.71875q0.28125 -0.28125 0.734375 -0.28125q0.4375 0 0.71875 0.28125q0.28125 0.28125 0.28125 0.71875l0 9.546875q0 0.796875 0.4375 1.34375q0.4375 0.53125 1.078125 0.53125l0.671875 0q0.359375 0 0.609375 0.28125q0.25 0.28125 0.25 0.71875q0 0.4375 -0.328125 0.71875q-0.328125 0.28125 -0.84375 0.28125l-0.359375 0zm-4.4375 -8.8125q-0.421875 0 -0.6875 -0.234375q-0.25 -0.25 -0.25 -0.609375q0 -0.40625 0.25 -0.640625q0.265625 -0.25 0.6875 -0.25l4.609375 0q0.421875 0 0.6875 0.25q0.265625 0.234375 0.265625 0.640625q0 0.359375 -0.265625 0.609375q-0.265625 0.234375 -0.6875 0.234375l-4.609375 0zm9.45752 1.96875q0 -1.203125 0.578125 -2.140625q0.59375 -0.953125 1.59375 -1.515625q1.0 -0.5625 2.203125 -0.5625q1.203125 0 1.796875 0.390625q0.59375 0.390625 0.453125 0.9375q-0.0625 0.28125 -0.234375 0.4375q-0.171875 0.140625 -0.390625 0.1875q-0.21875 0.03125 -0.484375 -0.03125q-1.28125 -0.265625 -2.296875 -0.03125q-1.015625 0.21875 -1.609375 0.8125q-0.59375 0.59375 -0.59375 1.515625l-1.015625 0zm0.015625 6.84375q-0.484375 0 -0.75 -0.25q-0.25 -0.25 -0.25 -0.75l0 -8.9375q0 -0.484375 0.25 -0.734375q0.265625 -0.265625 0.75 -0.265625q0.5 0 0.75 0.25q0.25 0.25 0.25 0.75l0 8.9375q0 0.484375 -0.25 0.75q-0.25 0.25 -0.75 0.25zm9.938721 0q-0.4375 0 -0.734375 -0.28125q-0.28125 -0.296875 -0.28125 -0.734375l0 -8.90625q0 -0.453125 0.28125 -0.734375q0.296875 -0.28125 0.734375 -0.28125q0.46875 0 0.75 0.28125q0.28125 0.28125 0.28125 0.734375l0 8.90625q0 0.4375 -0.28125 0.734375q-0.28125 0.28125 -0.75 0.28125zm0 -12.71875q-0.546875 0 -0.9375 -0.390625q-0.390625 -0.390625 -0.390625 -0.9375q0 -0.53125 0.390625 -0.921875q0.390625 -0.390625 0.9375 -0.390625q0.53125 0 0.921875 0.390625q0.390625 0.390625 0.390625 0.921875q0 0.546875 -0.390625 0.9375q-0.390625 0.390625 -0.921875 0.390625zm10.321289 12.796875q-1.5625 0 -2.796875 -0.71875q-1.234375 -0.734375 -1.96875 -2.0q-0.71875 -1.265625 -0.734375 -2.84375l0 -9.109375q0 -0.46875 0.28125 -0.75q0.296875 -0.28125 0.734375 -0.28125q0.46875 0 0.75 0.28125q0.28125 0.28125 0.28125 0.75l0 5.390625q0.703125 -0.84375 1.6875 -1.328125q0.984375 -0.484375 2.171875 -0.484375q1.453125 0 2.609375 0.734375q1.171875 0.71875 1.828125 1.96875q0.671875 1.25 0.671875 2.828125q0 1.578125 -0.734375 2.84375q-0.71875 1.265625 -1.96875 2.0q-1.234375 0.71875 -2.8125 0.71875zm0 -1.796875q1.015625 0 1.8125 -0.484375q0.8125 -0.5 1.28125 -1.359375q0.46875 -0.859375 0.46875 -1.921875q0 -1.078125 -0.46875 -1.90625q-0.46875 -0.84375 -1.28125 -1.328125q-0.796875 -0.5 -1.8125 -0.5q-1.0 0 -1.8125 0.5q-0.796875 0.484375 -1.265625 1.328125q-0.453125 0.828125 -0.453125 1.90625q0 1.0625 0.453125 1.921875q0.46875 0.859375 1.265625 1.359375q0.8125 0.484375 1.8125 0.484375zm13.169312 1.8125q-1.390625 0 -2.484375 -0.578125q-1.078125 -0.59375 -1.71875 -1.734375q-0.625 -1.140625 -0.625 -2.796875l0 -4.921875q0 -0.4375 0.28125 -0.71875q0.296875 -0.296875 0.734375 -0.296875q0.453125 0 0.734375 0.296875q0.296875 0.28125 0.296875 0.71875l0 4.921875q0 1.109375 0.40625 1.84375q0.421875 0.734375 1.140625 1.09375q0.734375 0.34375 1.625 0.34375q0.859375 0 1.53125 -0.34375q0.671875 -0.34375 1.0625 -0.921875q0.40625 -0.578125 0.40625 -1.296875l1.265625 0q0 1.234375 -0.609375 2.234375q-0.609375 1.0 -1.671875 1.578125q-1.046875 0.578125 -2.375 0.578125zm4.40625 -0.09375q-0.4375 0 -0.734375 -0.28125q-0.28125 -0.296875 -0.28125 -0.734375l0 -8.921875q0 -0.46875 0.28125 -0.734375q0.296875 -0.28125 0.734375 -0.28125q0.46875 0 0.75 0.28125q0.28125 0.265625 0.28125 0.734375l0 8.921875q0 0.4375 -0.28125 0.734375q-0.28125 0.28125 -0.75 0.28125zm8.608765 0q-1.0 0 -1.796875 -0.5q-0.796875 -0.515625 -1.265625 -1.390625q-0.453125 -0.890625 -0.453125 -1.984375l0 -9.546875q0 -0.4375 0.265625 -0.71875q0.28125 -0.28125 0.734375 -0.28125q0.4375 0 0.71875 0.28125q0.28125 0.28125 0.28125 0.71875l0 9.546875q0 0.796875 0.4375 1.34375q0.4375 0.53125 1.078125 0.53125l0.671875 0q0.359375 0 0.609375 0.28125q0.25 0.28125 0.25 0.71875q0 0.4375 -0.328125 0.71875q-0.328125 0.28125 -0.84375 0.28125l-0.359375 0zm-4.4375 -8.8125q-0.421875 0 -0.6875 -0.234375q-0.25 -0.25 -0.25 -0.609375q0 -0.40625 0.25 -0.640625q0.265625 -0.25 0.6875 -0.25l4.609375 0q0.421875 0 0.6875 0.25q0.265625 0.234375 0.265625 0.640625q0 0.359375 -0.265625 0.609375q-0.265625 0.234375 -0.6875 0.234375l-4.609375 0zm9.691895 8.8125q-0.4375 0 -0.734375 -0.28125q-0.28125 -0.296875 -0.28125 -0.734375l0 -8.90625q0 -0.453125 0.28125 -0.734375q0.296875 -0.28125 0.734375 -0.28125q0.46875 0 0.75 0.28125q0.28125 0.28125 0.28125 0.734375l0 8.90625q0 0.4375 -0.28125 0.734375q-0.28125 0.28125 -0.75 0.28125zm0 -12.71875q-0.546875 0 -0.9375 -0.390625q-0.390625 -0.390625 -0.390625 -0.9375q0 -0.53125 0.390625 -0.921875q0.390625 -0.390625 0.9375 -0.390625q0.53125 0 0.921875 0.390625q0.390625 0.390625 0.390625 0.921875q0 0.546875 -0.390625 0.9375q-0.390625 0.390625 -0.921875 0.390625zm9.789917 12.796875q-1.625 0 -2.875 -0.703125q-1.234375 -0.71875 -1.953125 -1.96875q-0.703125 -1.25 -0.703125 -2.859375q0 -1.640625 0.703125 -2.890625q0.71875 -1.25 1.953125 -1.953125q1.25 -0.71875 2.875 -0.71875q1.59375 0 2.828125 0.71875q1.25 0.703125 1.953125 1.953125q0.71875 1.25 0.71875 2.890625q0 1.609375 -0.703125 2.859375q-0.703125 1.25 -1.953125 1.96875q-1.234375 0.703125 -2.84375 0.703125zm0 -1.796875q1.03125 0 1.828125 -0.484375q0.8125 -0.484375 1.25 -1.3125q0.453125 -0.84375 0.453125 -1.9375q0 -1.109375 -0.453125 -1.953125q-0.4375 -0.859375 -1.25 -1.328125q-0.796875 -0.484375 -1.828125 -0.484375q-1.046875 0 -1.84375 0.484375q-0.796875 0.46875 -1.265625 1.328125q-0.453125 0.84375 -0.453125 1.953125q0 1.09375 0.453125 1.9375q0.46875 0.828125 1.265625 1.3125q0.796875 0.484375 1.84375 0.484375zm17.78125 1.734375q-0.453125 0 -0.75 -0.28125q-0.28125 -0.296875 -0.28125 -0.734375l0 -4.921875q0 -1.140625 -0.421875 -1.859375q-0.40625 -0.71875 -1.125 -1.0625q-0.703125 -0.359375 -1.625 -0.359375q-0.84375 0 -1.53125 0.34375q-0.671875 0.34375 -1.078125 0.921875q-0.390625 0.5625 -0.390625 1.296875l-1.265625 0q0 -1.265625 0.609375 -2.25q0.609375 -0.984375 1.671875 -1.5625q1.0625 -0.59375 2.375 -0.59375q1.390625 0 2.46875 0.59375q1.09375 0.59375 1.71875 1.734375q0.640625 1.140625 0.640625 2.796875l0 4.921875q0 0.4375 -0.296875 0.734375q-0.28125 0.28125 -0.71875 0.28125zm-8.234375 0q-0.4375 0 -0.734375 -0.28125q-0.28125 -0.296875 -0.28125 -0.734375l0 -8.921875q0 -0.453125 0.28125 -0.734375q0.296875 -0.28125 0.734375 -0.28125q0.46875 0 0.75 0.28125q0.28125 0.28125 0.28125 0.734375l0 8.921875q0 0.4375 -0.28125 0.734375q-0.28125 0.28125 -0.75 0.28125zm13.87439 -0.015625q-0.453125 0 -0.75 -0.296875q-0.296875 -0.296875 -0.296875 -0.75l0 -13.53125q0 -0.46875 0.296875 -0.75q0.296875 -0.296875 0.75 -0.296875q0.59375 0 0.90625 0.5625l6.265625 12.546875l-0.640625 0l6.109375 -12.546875q0.3125 -0.5625 0.90625 -0.5625q0.453125 0 0.75 0.296875q0.296875 0.28125 0.296875 0.75l0 13.53125q0 0.453125 -0.3125 0.75q-0.3125 0.296875 -0.734375 0.296875q-0.4375 0 -0.734375 -0.296875q-0.296875 -0.296875 -0.296875 -0.75l0 -10.65625l0.390625 -0.09375l-5.234375 10.671875q-0.34375 0.53125 -0.90625 0.53125q-0.65625 0 -0.953125 -0.625l-5.171875 -10.375l0.390625 -0.109375l0 10.65625q0 0.453125 -0.296875 0.75q-0.296875 0.296875 -0.734375 0.296875zm19.608765 0q-0.4375 0 -0.734375 -0.28125q-0.28125 -0.296875 -0.28125 -0.734375l0 -8.90625q0 -0.453125 0.28125 -0.734375q0.296875 -0.28125 0.734375 -0.28125q0.46875 0 0.75 0.28125q0.28125 0.28125 0.28125 0.734375l0 8.90625q0 0.4375 -0.28125 0.734375q-0.28125 0.28125 -0.75 0.28125zm0 -12.71875q-0.546875 0 -0.9375 -0.390625q-0.390625 -0.390625 -0.390625 -0.9375q0 -0.53125 0.390625 -0.921875q0.390625 -0.390625 0.9375 -0.390625q0.53125 0 0.921875 0.390625q0.390625 0.390625 0.390625 0.921875q0 0.546875 -0.390625 0.9375q-0.390625 0.390625 -0.921875 0.390625zm12.508667 12.71875q-0.203125 0 -0.390625 -0.0625q-0.171875 -0.0625 -0.328125 -0.25l-3.5 -4.203125l-0.71875 -0.71875l-3.484375 -4.125q-0.265625 -0.328125 -0.28125 -0.6875q-0.015625 -0.375 0.203125 -0.625q0.21875 -0.265625 0.65625 -0.265625q0.484375 0 0.765625 0.34375l3.40625 4.078125l0.53125 0.46875l3.75 4.5q0.3125 0.359375 0.296875 0.71875q-0.015625 0.34375 -0.265625 0.59375q-0.25 0.234375 -0.640625 0.234375zm-7.640625 0q-0.40625 0 -0.640625 -0.25q-0.21875 -0.25 -0.21875 -0.609375q0 -0.359375 0.28125 -0.71875l3.390625 -4.265625l1.078125 1.53125l-3.171875 4.0q-0.296875 0.3125 -0.71875 0.3125zm4.9375 -5.140625l-1.375 -1.171875l3.21875 -4.28125q0.15625 -0.203125 0.328125 -0.265625q0.1875 -0.078125 0.40625 -0.078125q0.4375 0 0.65625 0.265625q0.21875 0.265625 0.203125 0.65625q0 0.375 -0.28125 0.734375l-3.15625 4.140625z" fill-rule="nonzero"/></g></svg>